<?xml version="1.0" encoding="UTF-8"?>
<svg version="1.1" xmlns="http://www.w3.org/2000/svg" width="512" height="512">
<path d="M0 0 C1.5778125 0.8971875 1.5778125 0.8971875 3.1875 1.8125 C10.78021231 7.71794291 15.49859093 13.90659694 19 23 C19 24.32 19 25.64 19 27 C19.73027405 26.99111755 20.4605481 26.98223511 21.21295166 26.9730835 C28.09877061 26.89289909 34.98451968 26.83201607 41.87068558 26.79275131 C45.41090072 26.77188588 48.95072974 26.74358874 52.49072266 26.69824219 C56.56156091 26.64642262 60.63199427 26.62704631 64.703125 26.609375 C66.60798676 26.57840729 66.60798676 26.57840729 68.55133057 26.54681396 C70.32271393 26.54636078 70.32271393 26.54636078 72.12988281 26.54589844 C73.16912903 26.53701599 74.20837524 26.52813354 75.27911377 26.51898193 C78.79014216 27.13968708 79.95110326 28.10326822 82 31 C82.390625 33.796875 82.390625 33.796875 82.25 36.75 C82.21390625 37.73484375 82.1778125 38.7196875 82.140625 39.734375 C82.09421875 40.48203125 82.0478125 41.2296875 82 42 C82.60419769 41.99333817 83.20839539 41.98667633 83.8309021 41.97981262 C90.15820966 41.91309018 96.48541614 41.86804715 102.81298828 41.83520508 C105.16980046 41.82018222 107.52658498 41.79975804 109.88330078 41.77368164 C113.28424942 41.73701179 116.68482621 41.72020804 120.0859375 41.70703125 C121.12801361 41.69154739 122.17008972 41.67606354 123.2437439 41.66011047 C133.77934793 41.65772385 142.11917961 43.80676797 150 51 C156.10874675 57.24758191 160.11340516 65.4220155 160.13371277 74.25048828 C160.13797775 75.0916217 160.14224274 75.93275513 160.14663696 76.79937744 C160.14618378 77.71378601 160.14573059 78.62819458 160.14526367 79.5703125 C160.15030159 81.02458649 160.15030159 81.02458649 160.15544128 82.50823975 C160.16494236 85.71383952 160.16689382 88.91938703 160.16796875 92.125 C160.17118136 94.35172548 160.17454543 96.57845075 160.17805481 98.80517578 C160.18404357 103.47233571 160.18589491 108.13947712 160.18530273 112.80664062 C160.185201 118.79233599 160.19886613 124.77791303 160.21607494 130.76358032 C160.22718148 135.3617406 160.22922237 139.95987212 160.22869301 144.55804443 C160.22987466 146.76528329 160.23430676 148.97252286 160.24202538 151.17974854 C160.25180022 154.2631465 160.24895733 157.34628555 160.24291992 160.4296875 C160.24853943 161.34409607 160.25415894 162.25850464 160.25994873 163.20062256 C160.253657 164.46232269 160.253657 164.46232269 160.24723816 165.74951172 C160.24778293 166.47806366 160.24832769 167.2066156 160.24888897 167.95724487 C159.93930742 170.49813407 159.5215434 171.91910684 158 174 C156.02 174.66 154.04 175.32 152 176 C152 182.27 152 188.54 152 195 C153.65 195.33 155.3 195.66 157 196 C159.09328123 198.05966887 159.89775581 199.37990869 160.37604749 202.2806555 C160.37653455 203.12428944 160.37702161 203.96792337 160.37752342 204.83712196 C160.38534666 205.81426993 160.39316991 206.7914179 160.40123022 207.79817641 C160.39453805 208.86916937 160.38784589 209.94016233 160.38095093 211.04360962 C160.3856309 212.18336632 160.39031087 213.32312302 160.39513266 214.49741781 C160.40713506 218.33124063 160.39760451 222.16470944 160.38818359 225.99853516 C160.3905962 228.74149313 160.39747898 231.4844359 160.40411377 234.22738647 C160.41746832 240.91452287 160.41456499 247.60155836 160.40587585 254.28869875 C160.39910307 259.72616948 160.39818083 265.16361192 160.4014473 270.60108566 C160.401907 271.37475762 160.40236669 272.14842958 160.40284032 272.94554614 C160.40379951 274.5172827 160.40477215 276.08901925 160.4057581 277.6607558 C160.41431791 292.40853742 160.40447038 307.15626316 160.388357 321.90403561 C160.37496919 334.54819374 160.37726805 347.19226917 160.39111328 359.83642578 C160.40718614 374.52182068 160.41347711 389.20716647 160.40427649 403.89256895 C160.40332087 405.46038587 160.40237775 407.0282028 160.4014473 408.59601974 C160.40098447 409.36738355 160.40052164 410.13874735 160.40004479 410.93348581 C160.39745883 416.35903659 160.40181774 421.78455614 160.40888596 427.21010208 C160.41732083 433.83030117 160.41497988 440.45039361 160.39904372 447.07058056 C160.39118506 450.44604223 160.38965559 453.82118015 160.39799118 457.1966629 C160.40620849 460.86278085 160.39588168 464.52840208 160.38095093 468.19448853 C160.38764309 469.25209715 160.39433526 470.30970578 160.40123022 471.39936316 C160.3184675 481.90221705 157.87611946 490.8976651 151 499 C142.45611244 507.10165735 133.79109153 508.44621618 122.40565491 508.38768005 C121.14743547 508.39306559 119.88921604 508.39845113 118.59286875 508.40399987 C115.11655933 508.41841339 111.64048783 508.41422271 108.16416562 508.40683305 C104.40879366 508.40209351 100.65347259 508.41461814 96.89811707 508.42485046 C89.54745419 508.44202819 82.19687684 508.44288065 74.8461991 508.43763756 C68.87058081 508.43359286 62.89498775 508.43504298 56.91937065 508.44038582 C55.6426774 508.44150845 55.6426774 508.44150845 54.34019236 508.44265376 C52.61102021 508.44418527 50.88184806 508.44572362 49.15267592 508.44726873 C32.94466577 508.46098996 16.73670391 508.45555865 0.52869486 508.44408352 C-14.29250964 508.43415062 -29.11358932 508.44709346 -43.93477457 508.47101771 C-59.16200139 508.49541178 -74.38917007 508.50501588 -89.61641604 508.49836498 C-98.16185007 508.49487357 -106.7071881 508.49709977 -115.25260735 508.51461601 C-122.5267568 508.5293418 -129.80074262 508.5299685 -137.07488888 508.5125451 C-140.78442505 508.50403594 -144.49366896 508.50188323 -148.20318985 508.51719666 C-152.22858693 508.53360805 -156.25327968 508.51888958 -160.27867126 508.50120544 C-161.44541081 508.51081045 -162.61215035 508.52041546 -163.81424564 508.53031152 C-170.76960974 508.46744778 -175.9212494 507.42169186 -182 504 C-182.79792969 503.55398438 -183.59585938 503.10796875 -184.41796875 502.6484375 C-191.32091613 497.68075351 -195.59015415 490.97451535 -197.58055151 482.6916883 C-198.56420019 476.37940994 -198.27680836 469.915341 -198.26069641 463.54006958 C-198.26371864 461.8491222 -198.26760848 460.15817619 -198.27228898 458.46723258 C-198.28256848 453.82994463 -198.28038727 449.192734 -198.27610838 444.55543971 C-198.27364109 439.55056217 -198.28265537 434.54570324 -198.29014587 429.54083252 C-198.30289472 419.73938764 -198.30468634 409.93797015 -198.30234561 400.13651837 C-198.30056252 392.16959064 -198.3023119 384.20267122 -198.30657005 376.23574448 C-198.30716524 375.10181752 -198.30776043 373.96789056 -198.30837366 372.79960217 C-198.30958541 370.49602176 -198.31079954 368.19244134 -198.31201603 365.88886093 C-198.32289226 344.28621837 -198.32072867 322.68359142 -198.31463119 301.08094798 C-198.30946181 281.32002118 -198.3207179 261.55914366 -198.33972941 241.79822661 C-198.35910315 221.5051577 -198.36736463 201.21211211 -198.36360615 180.91903389 C-198.36169343 169.5270417 -198.36418868 158.13509148 -198.37832069 146.74310684 C-198.39022952 137.04514687 -198.39164493 127.34725469 -198.37953053 117.6492938 C-198.37363842 112.70225433 -198.37255167 107.75533888 -198.38453293 102.80830765 C-198.39537984 98.27695519 -198.3923025 93.74583048 -198.37827124 89.21448873 C-198.37562105 87.57795253 -198.37800099 85.94139856 -198.38600711 84.3048798 C-198.44785834 70.71538965 -197.19432962 60.30735485 -187.30078125 50.27734375 C-180.7963692 44.32836464 -173.65225069 41.86417152 -164.8425293 41.88647461 C-163.84186935 41.88655014 -162.84120941 41.88662567 -161.81022644 41.88670349 C-160.7423439 41.89186478 -159.67446136 41.89702606 -158.57421875 41.90234375 C-157.47149124 41.9037587 -156.36876373 41.90517365 -155.23262024 41.90663147 C-151.71755233 41.91221996 -148.20254859 41.92477041 -144.6875 41.9375 C-142.30143321 41.94251648 -139.91536543 41.94707913 -137.52929688 41.95117188 C-131.6861761 41.96218563 -125.84309263 41.97891236 -120 42 C-120.0155896 41.23675415 -120.0311792 40.4735083 -120.04724121 39.68713379 C-120.05936646 38.69016479 -120.0714917 37.6931958 -120.08398438 36.66601562 C-120.09957397 35.67589478 -120.11516357 34.68577393 -120.13122559 33.66564941 C-120 31 -120 31 -118.65625 28.34375 C-114.38191982 26.18144179 -110.2185089 26.42317218 -105.5 26.5 C-104.54996094 26.48453125 -103.59992188 26.4690625 -102.62109375 26.453125 C-95.73203439 26.49188201 -95.73203439 26.49188201 -92.34375 28.84375 C-91 31 -91 31 -91 34 C-87.89420506 33.97720599 -84.79209516 33.89992181 -81.6875 33.8125 C-80.80642578 33.80669922 -79.92535156 33.80089844 -79.01757812 33.79492188 C-76.57824603 33.71144663 -74.36999577 33.58806985 -72 33 C-69.86381736 30.66690785 -69.86381736 30.66690785 -69 28 C-68 27 -68 27 -65.49609375 26.90234375 C-64.48675781 26.91394531 -63.47742188 26.92554687 -62.4375 26.9375 C-61.42558594 26.94652344 -60.41367188 26.95554687 -59.37109375 26.96484375 C-58.58863281 26.97644531 -57.80617187 26.98804687 -57 27 C-56.95875 26.05125 -56.9175 25.1025 -56.875 24.125 C-55.57124234 15.28445151 -48.80534775 7.39156072 -42 2 C-29.62437791 -5.49247 -12.91205594 -7.41865639 0 0 Z " fill="#F1FAFE" transform="translate(275,4)"/>
<path d="M0 0 C1.5778125 0.8971875 1.5778125 0.8971875 3.1875 1.8125 C10.78021231 7.71794291 15.49859093 13.90659694 19 23 C19 24.32 19 25.64 19 27 C19.73027405 26.99111755 20.4605481 26.98223511 21.21295166 26.9730835 C28.09877061 26.89289909 34.98451968 26.83201607 41.87068558 26.79275131 C45.41090072 26.77188588 48.95072974 26.74358874 52.49072266 26.69824219 C56.56156091 26.64642262 60.63199427 26.62704631 64.703125 26.609375 C66.60798676 26.57840729 66.60798676 26.57840729 68.55133057 26.54681396 C70.32271393 26.54636078 70.32271393 26.54636078 72.12988281 26.54589844 C73.16912903 26.53701599 74.20837524 26.52813354 75.27911377 26.51898193 C78.79014216 27.13968708 79.95110326 28.10326822 82 31 C82.390625 33.796875 82.390625 33.796875 82.25 36.75 C82.21390625 37.73484375 82.1778125 38.7196875 82.140625 39.734375 C82.09421875 40.48203125 82.0478125 41.2296875 82 42 C82.60419769 41.99333817 83.20839539 41.98667633 83.8309021 41.97981262 C90.15820966 41.91309018 96.48541614 41.86804715 102.81298828 41.83520508 C105.16980046 41.82018222 107.52658498 41.79975804 109.88330078 41.77368164 C113.28424942 41.73701179 116.68482621 41.72020804 120.0859375 41.70703125 C121.12801361 41.69154739 122.17008972 41.67606354 123.2437439 41.66011047 C133.77934793 41.65772385 142.11917961 43.80676797 150 51 C156.10874675 57.24758191 160.11340516 65.4220155 160.13371277 74.25048828 C160.13797775 75.0916217 160.14224274 75.93275513 160.14663696 76.79937744 C160.14618378 77.71378601 160.14573059 78.62819458 160.14526367 79.5703125 C160.15030159 81.02458649 160.15030159 81.02458649 160.15544128 82.50823975 C160.16494236 85.71383952 160.16689382 88.91938703 160.16796875 92.125 C160.17118136 94.35172548 160.17454543 96.57845075 160.17805481 98.80517578 C160.18404357 103.47233571 160.18589491 108.13947712 160.18530273 112.80664062 C160.185201 118.79233599 160.19886613 124.77791303 160.21607494 130.76358032 C160.22718148 135.3617406 160.22922237 139.95987212 160.22869301 144.55804443 C160.22987466 146.76528329 160.23430676 148.97252286 160.24202538 151.17974854 C160.25180022 154.2631465 160.24895733 157.34628555 160.24291992 160.4296875 C160.24853943 161.34409607 160.25415894 162.25850464 160.25994873 163.20062256 C160.253657 164.46232269 160.253657 164.46232269 160.24723816 165.74951172 C160.24778293 166.47806366 160.24832769 167.2066156 160.24888897 167.95724487 C159.95388899 170.37845594 159.30947127 171.9457488 158 174 C154.73549464 175.5959804 152.87982696 176.20461092 149.3125 175.375 C146.5470511 173.73067903 145.55610681 172.84099205 144 170 C143.55905795 166.79645943 143.61433123 163.61455826 143.64697266 160.38549805 C143.64481247 159.41104736 143.64265228 158.43659668 143.64042664 157.43261719 C143.63733935 155.31716054 143.64094644 153.20168599 143.65044022 151.0862484 C143.66416823 147.73591554 143.65774653 144.38617572 143.64559937 141.0358429 C143.61462396 131.51059099 143.61950124 121.98547606 143.63964844 112.46020508 C143.65057336 106.63289094 143.63735796 100.80602168 143.60975266 94.9787693 C143.60431541 92.76006153 143.60836746 90.54130918 143.62215042 88.32263756 C143.64122496 85.2154948 143.62978226 82.10980379 143.61181641 79.00268555 C143.62515518 78.08971207 143.63849396 77.17673859 143.65223694 76.23609924 C143.57094675 69.89980002 142.19092223 66.78215345 138 62 C132.67537448 58.08601411 126.83015634 58.5264841 120.4765625 58.48828125 C119.37524994 58.47033005 118.27393738 58.45237885 117.13925171 58.43388367 C113.63453965 58.37986242 110.12996317 58.34591036 106.625 58.3125 C104.24347075 58.2793198 101.86195938 58.24482949 99.48046875 58.20898438 C93.65374376 58.12414022 87.82705843 58.05728938 82 58 C82 63.28 82 68.56 82 74 C83.87703613 73.9685791 83.87703613 73.9685791 85.79199219 73.93652344 C90.43608145 73.86410606 95.08012083 73.81819382 99.72460938 73.78027344 C101.73446038 73.76016195 103.74425291 73.73286885 105.75390625 73.69824219 C108.64337596 73.64970366 111.53207191 73.62702678 114.421875 73.609375 C115.31992859 73.58872986 116.21798218 73.56808472 117.14324951 73.54681396 C117.98381897 73.54651184 118.82438843 73.54620972 119.69042969 73.54589844 C120.79629425 73.53257477 120.79629425 73.53257477 121.92449951 73.51898193 C124.91694586 74.2125114 126.05735384 75.66067081 128 78 C128.49909532 80.39492136 128.49909532 80.39492136 128.49777794 83.11544132 C128.50697553 84.15467371 128.51617312 85.1939061 128.52564943 86.26463038 C128.51021874 87.97515224 128.51021874 87.97515224 128.49447632 89.7202301 C128.49930515 90.93278518 128.50413398 92.14534026 128.50910914 93.39463943 C128.51844345 96.76236465 128.50979156 100.12918156 128.49358058 103.49682391 C128.48043402 107.12823383 128.49032218 110.75958973 128.49734497 114.39100647 C128.50743602 121.50764756 128.49613526 128.62410297 128.47764437 135.74072099 C128.45687691 144.03192122 128.45701682 152.32308128 128.45798953 160.61430263 C128.45899129 175.41518949 128.44065784 190.21599001 128.41162109 205.0168457 C128.38348104 219.3680987 128.36927802 233.71927567 128.37060547 248.07055664 C128.37068538 248.95341099 128.37076529 249.83626535 128.37084763 250.74587286 C128.37092834 251.62721936 128.37100905 252.50856587 128.3710922 253.41661984 C128.37247417 269.76098602 128.36067401 286.10531998 128.34278577 302.4496757 C128.33676501 308.22339999 128.33462802 313.99711833 128.33372116 319.77084541 C128.33235276 326.81663451 128.32336709 333.86236933 128.30505554 340.90813542 C128.29585819 344.50034247 128.28971414 348.0924804 128.29224396 351.68470001 C128.2948586 355.58681536 128.28187685 359.48879303 128.26742554 363.3908844 C128.27052274 364.51561726 128.27361995 365.64035011 128.276811 366.79916579 C128.21544598 376.8617756 127.11780369 386.03517107 122.375 395 C122.06949219 395.62132812 121.76398438 396.24265625 121.44921875 396.8828125 C115.95641394 407.60789383 108.08653508 416.37397548 99.61328125 424.8203125 C98.62416926 425.81400563 97.63542306 426.80806299 96.64701843 427.80245972 C94.58873701 429.86959547 92.52499705 431.93107834 90.45727539 433.98876953 C87.84139239 436.59318069 85.24168779 439.2130919 82.64617634 441.83778572 C80.61207836 443.89045545 78.5685009 445.93348942 76.5222683 447.97405624 C75.10278182 449.39332009 73.69176151 450.82103594 72.28108215 452.24905396 C63.96966946 460.4732678 54.67150169 467.99239605 43.75 472.4375 C42.67234375 472.88996094 41.5946875 473.34242188 40.484375 473.80859375 C30.18113661 477.33156204 20.3522863 477.29741602 9.6003418 477.29052734 C7.73360426 477.29651782 5.86686918 477.30332456 4.00013733 477.31088257 C-1.0490374 477.32848627 -6.09814428 477.33323527 -11.14734674 477.33451414 C-14.30247909 477.33593827 -17.45759431 477.34021258 -20.6127224 477.34550858 C-31.62048815 477.36398262 -42.62820558 477.37218154 -53.63598633 477.37060547 C-63.89891067 477.36940131 -74.16162564 477.39056406 -84.42449695 477.4220928 C-93.24081389 477.44821331 -102.0570622 477.45897471 -110.87341756 477.45769465 C-116.13733403 477.45718424 -121.40106386 477.46291274 -126.66494179 477.48405075 C-131.6087242 477.50336466 -136.55214038 477.50360479 -141.49593544 477.48901749 C-143.31162041 477.4869205 -145.12732793 477.49168293 -146.94297409 477.5037384 C-149.41788741 477.51911015 -151.89152468 477.50993775 -154.3664093 477.49447632 C-155.08789903 477.50476344 -155.80938877 477.51505057 -156.55274183 477.52564943 C-159.96859715 477.47835216 -161.71121436 477.22416007 -164.44535351 475.10187721 C-166.22993405 472.68912989 -166.50515487 471.53994117 -166.51757812 468.5703125 C-166.53018677 467.7026123 -166.54279541 466.83491211 -166.55578613 465.94091797 C-166.54768921 465.01166504 -166.53959229 464.08241211 -166.53125 463.125 C-166.5350769 462.16352051 -166.53890381 461.20204102 -166.54284668 460.21142578 C-166.54556602 458.1806534 -166.53820329 456.14984601 -166.52148438 454.11914062 C-166.50007525 451.0109243 -166.52128546 447.90501944 -166.546875 444.796875 C-166.54423173 442.82291157 -166.53910676 440.84894957 -166.53125 438.875 C-166.53934692 437.94574707 -166.54744385 437.01649414 -166.55578613 436.05908203 C-166.46259369 429.64577494 -166.46259369 429.64577494 -164.15039062 426.41796875 C-161.15139707 424.44043076 -159.52459372 424.35262564 -156 425 C-152.54008647 427.68786933 -151.14174528 429.12471526 -150.43237305 433.50512695 C-150.45855713 434.81956787 -150.48474121 436.13400879 -150.51171875 437.48828125 C-150.51879349 438.19147995 -150.52586823 438.89467865 -150.53315735 439.6191864 C-150.56100788 441.85140227 -150.6237168 444.08105077 -150.6875 446.3125 C-150.71259549 447.83134381 -150.73540648 449.3502272 -150.75585938 450.86914062 C-150.81079993 454.58025248 -150.89700261 458.28987541 -151 462 C-129.69379516 462.009571 -108.38787303 461.984846 -87.08176041 461.9197216 C-77.18807735 461.8902729 -67.29460841 461.87188472 -57.40087891 461.87988281 C-48.77361478 461.88682865 -40.14668228 461.87266697 -31.51949954 461.83356392 C-26.95486509 461.81360091 -22.39075078 461.80393315 -17.82608795 461.81957626 C-13.52152998 461.83399361 -9.21796164 461.81999409 -4.91353035 461.78504753 C-3.34150767 461.77713865 -1.7693944 461.77923801 -0.19740868 461.79260826 C10.35789119 461.87472538 20.13478057 460.77182457 28.02730942 453.00497246 C33.92939196 446.01764946 35.44120683 437.49084817 35.51171875 428.58984375 C35.52966995 427.73693253 35.54762115 426.8840213 35.56611633 426.00526428 C35.61973167 423.31605789 35.65395636 420.62702384 35.6875 417.9375 C35.7207163 416.09958563 35.75520986 414.26169387 35.79101562 412.42382812 C35.87542916 407.9493442 35.94247048 403.47490703 36 399 C34.69343445 399.00888245 33.3868689 399.01776489 32.04071045 399.0269165 C19.73930723 399.10793454 7.43795801 399.16793293 -4.86365128 399.20724869 C-11.1883479 399.2281407 -17.51282949 399.25648834 -23.83740234 399.30175781 C-29.93874989 399.34515716 -36.03989035 399.36912494 -42.14138031 399.37950897 C-44.47145601 399.38691091 -46.80152013 399.4013648 -49.13150787 399.42292023 C-52.39033171 399.45187487 -55.6482952 399.45595922 -58.90722656 399.45410156 C-59.874673 399.46848267 -60.84211945 399.48286377 -61.83888245 399.49768066 C-68.35647786 399.45736724 -68.35647786 399.45736724 -71.59564209 397.1552124 C-73.5533501 394.15079554 -73.64644818 392.51955122 -73 389 C-70.45209986 385.81050557 -68.95479378 384.18989657 -64.89829731 383.38311005 C-63.7286251 383.38683876 -62.55895288 383.39056747 -61.35383606 383.39440918 C-60.69916766 383.38958133 -60.04449927 383.38475348 -59.36999243 383.37977934 C-57.18324634 383.3695667 -54.99837189 383.39483767 -52.81176758 383.41992188 C-51.24106659 383.41965515 -49.6703646 383.41712063 -48.09967041 383.41249084 C-44.71973668 383.40708902 -41.34032505 383.41712758 -37.96045876 383.4389801 C-32.60980309 383.4728754 -27.25958846 383.46875073 -21.90885925 383.4588623 C-9.57869415 383.44187423 2.75124602 383.47459975 15.08135986 383.50778961 C26.37036394 383.53768167 37.65912174 383.55694992 48.94816095 383.53612375 C54.2603014 383.52775472 59.57164838 383.54345487 64.88367593 383.57791901 C68.19911579 383.59443955 71.51430085 383.59017845 74.82975769 383.58047295 C76.35912738 383.58021435 77.88852756 383.58844085 79.41779518 383.60611153 C89.10085128 383.71248983 97.47004747 383.10674054 104.90103436 376.24445343 C111.60333255 369.18014982 112.44196915 362.08106565 112.39872742 352.71815491 C112.40537424 351.58919703 112.41202107 350.46023916 112.41886932 349.29707044 C112.43750523 345.51834891 112.43489353 341.73994386 112.43237305 337.96118164 C112.43973264 335.25081078 112.45158586 332.54046392 112.46325684 329.83010864 C112.48602557 323.99707003 112.49792496 318.16409106 112.50238609 312.33101082 C112.50885189 303.89743268 112.53179681 295.4639623 112.55872939 287.03042763 C112.60198249 273.34671627 112.63195767 259.66300945 112.65356445 245.97924805 C112.67457857 232.68886076 112.70185744 219.39851062 112.73754883 206.1081543 C112.73974765 205.28856958 112.74194648 204.46898486 112.74421193 203.62456424 C112.75528169 199.5128388 112.76647448 195.40111371 112.77772844 191.28938878 C112.87089263 157.19295532 112.94168011 123.09651051 113 89 C102.11 89 91.22 89 80 89 C79.34 90.98 78.68 92.96 78 95 C76.23046875 97.046875 76.23046875 97.046875 74.1875 98.75 C73.18783203 99.60851562 73.18783203 99.60851562 72.16796875 100.484375 C67.56363028 103.70326387 63.64030195 104.25218365 58.07463074 104.26742554 C57.04763415 104.27422221 57.04763415 104.27422221 55.99989015 104.28115618 C53.71234131 104.29378702 51.42503096 104.29218069 49.13745117 104.29052734 C47.49453933 104.29651346 45.85163031 104.30331919 44.20872498 104.31088257 C39.74993336 104.32854215 35.29121852 104.33323795 30.83239532 104.33451414 C28.04510371 104.33593641 25.25783158 104.34020746 22.47054482 104.34550858 C12.74198799 104.36400926 3.01348595 104.37217921 -6.71508789 104.37060547 C-15.77589445 104.36940431 -24.83646272 104.39050156 -33.89720899 104.4220928 C-41.68251978 104.44826737 -49.4677528 104.45897226 -57.25310725 104.45769465 C-61.90018033 104.45718533 -66.54704165 104.4628518 -71.19407082 104.48405075 C-75.5665677 104.50345286 -79.93865126 104.50354423 -84.31116295 104.48901749 C-85.91230754 104.48693067 -87.51347813 104.49162271 -89.11457825 104.5037384 C-98.38613681 104.56933073 -105.72376189 104.56539769 -113.05859375 98.21875 C-113.51363281 97.6515625 -113.96867187 97.084375 -114.4375 96.5 C-114.91058594 95.9328125 -115.38367188 95.365625 -115.87109375 94.78125 C-117 93 -117 93 -118 89 C-128.89 89 -139.78 89 -151 89 C-150.99111755 92.87260056 -150.98223511 96.74520111 -150.9730835 100.7351532 C-150.89352268 136.23047502 -150.83378931 171.72578573 -150.79573868 207.22117714 C-150.79073573 211.87132856 -150.78555845 216.52147976 -150.78027344 221.17163086 C-150.7792242 222.09740989 -150.77817495 223.02318891 -150.77709392 223.97702185 C-150.75967872 238.97601791 -150.7281349 253.97495277 -150.69138882 268.9739125 C-150.6540104 284.35905166 -150.63177071 299.74415872 -150.62364602 315.12934142 C-150.61815181 324.62630445 -150.60078582 334.12309453 -150.56833413 343.62000433 C-150.54722449 350.12839833 -150.54079188 356.63670263 -150.54599449 363.14512839 C-150.54856183 366.90273596 -150.54456855 370.66004087 -150.5231781 374.41759491 C-150.50017224 378.48857209 -150.50802788 382.55890144 -150.51898193 386.62992859 C-150.50733057 387.82155835 -150.4956792 389.01318812 -150.48367476 390.24092788 C-150.54199697 398.22164757 -150.54199697 398.22164757 -152.90286636 402.23382282 C-155.18219179 404.15343942 -156.11912269 404.6589112 -159.0625 404.5625 C-163 404 -163 404 -164.72232395 402.30920696 C-166.2799696 399.49399713 -166.37692644 397.70042224 -166.38031673 394.4901886 C-166.38875668 393.36303782 -166.39719662 392.23588705 -166.40589231 391.07458019 C-166.39988227 389.83607469 -166.39387222 388.59756918 -166.38768005 387.3215332 C-166.39306559 386.00603391 -166.39845113 384.69053461 -166.40399987 383.3351717 C-166.41849094 379.68055403 -166.41419845 376.02616118 -166.40683305 372.37153101 C-166.40211274 368.43145265 -166.41460107 364.49142372 -166.42485046 360.55136108 C-166.44206569 352.83151894 -166.44287291 345.11175809 -166.43763756 337.39190173 C-166.43359999 331.11913905 -166.43503449 324.84640044 -166.44038582 318.57363892 C-166.44113424 317.68166945 -166.44188266 316.78969998 -166.44265376 315.87070113 C-166.4441852 314.05881619 -166.44572355 312.24693125 -166.44726873 310.43504632 C-166.46100341 293.43556374 -166.4555491 276.43612716 -166.44408352 259.43664563 C-166.43414821 243.87462728 -166.44709522 228.31272778 -166.47101771 212.75072777 C-166.49538217 196.78123419 -166.50502324 180.81179601 -166.49836498 164.8422842 C-166.49486709 155.87273642 -166.49714238 146.9032801 -166.51461601 137.93374634 C-166.5293048 130.2988712 -166.53001707 122.66415192 -166.5125451 115.02927995 C-166.5040055 111.13204614 -166.50195718 107.23509115 -166.51719666 103.33787155 C-166.53349453 99.11784167 -166.51895938 94.89849052 -166.50120544 90.6784668 C-166.51081045 89.43996129 -166.52041546 88.20145578 -166.53031152 86.92541981 C-166.52049723 85.79826903 -166.51068294 84.67111826 -166.50057125 83.5098114 C-166.50046391 82.535339 -166.50035658 81.5608666 -166.50024599 80.55686474 C-165.85659575 77.26703005 -164.57875685 76.07155117 -162 74 C-159.92449951 73.51898193 -159.92449951 73.51898193 -157.69042969 73.54589844 C-156.84986023 73.54620056 -156.00929077 73.54650269 -155.14324951 73.54681396 C-153.79616913 73.57778168 -153.79616913 73.57778168 -152.421875 73.609375 C-151.4953009 73.61503479 -150.56872681 73.62069458 -149.61407471 73.62652588 C-146.65885438 73.64889079 -143.70485295 73.69908738 -140.75 73.75 C-138.7448092 73.77006485 -136.73959936 73.78831565 -134.734375 73.8046875 C-129.82244806 73.848756 -124.91143058 73.91778445 -120 74 C-120 68.72 -120 63.44 -120 58 C-127.15377197 58.04417319 -134.30666312 58.11403127 -141.45996094 58.20751953 C-143.89250675 58.23571451 -146.32514392 58.25693632 -148.7578125 58.27099609 C-152.25828782 58.29244508 -155.75766631 58.33910843 -159.2578125 58.390625 C-160.34240753 58.39185364 -161.42700256 58.39308228 -162.54446411 58.39434814 C-168.48847437 58.50918955 -172.44972639 58.77379982 -177 63 C-180.54816785 67.50680361 -181.50037834 70.42394634 -181.50336456 76.13467979 C-181.50917833 76.83312767 -181.51499209 77.53157555 -181.52098203 78.25118852 C-181.53557918 80.59142585 -181.52169902 82.93061384 -181.50793457 85.27084351 C-181.51254363 86.9656187 -181.51889659 88.6603899 -181.52684355 90.35515273 C-181.54355963 95.01230723 -181.53528012 99.66913436 -181.52289867 104.32629013 C-181.5138597 109.34890219 -181.52781228 114.37145741 -181.53881836 119.39405823 C-181.55662125 129.23390723 -181.55275548 139.07363432 -181.5411678 148.91348813 C-181.53213969 156.91052231 -181.53090678 164.90752228 -181.53526306 172.90456009 C-181.53587599 174.04211084 -181.53648893 175.17966158 -181.53712043 176.35168356 C-181.53839932 178.66251552 -181.53969617 180.97334747 -181.5410108 183.2841794 C-181.55242205 204.96259984 -181.53929487 226.64095266 -181.51780933 248.319362 C-181.49994268 266.92225178 -181.50303786 285.52504171 -181.52148438 304.12792969 C-181.54288974 325.72489301 -181.55131829 347.32179703 -181.53903532 368.91876948 C-181.53776111 371.22178244 -181.53650363 373.5247954 -181.53526306 375.82780838 C-181.53433741 377.52753892 -181.53433741 377.52753892 -181.53339306 379.26160746 C-181.5299388 387.24842839 -181.53577024 395.23521172 -181.54518127 403.22202682 C-181.55639912 412.95634994 -181.55336584 422.69054403 -181.5320583 432.42485236 C-181.52154433 437.39191094 -181.51743199 442.35875439 -181.53065491 447.32581139 C-181.54257762 451.87324717 -181.53601815 456.4202685 -181.5147447 460.9676667 C-181.51027808 462.61229836 -181.51254628 464.25696507 -181.52224785 465.90157418 C-181.97779109 477.72676349 -181.97779109 477.72676349 -177 488 C-171.0786437 492.89373121 -165.23171728 492.56595012 -157.78492737 492.50793457 C-156.55544166 492.51417453 -155.32595595 492.5204145 -154.0592131 492.52684355 C-150.65828607 492.54001442 -147.2582458 492.53530684 -143.85737312 492.52289867 C-140.1851582 492.51383625 -136.51301993 492.52782386 -132.84082031 492.53881836 C-125.65141751 492.55659604 -118.46218183 492.55276684 -111.2727725 492.5411678 C-105.42869553 492.53213007 -99.58466537 492.53091094 -93.74058342 492.53526306 C-92.9084579 492.53587599 -92.07633238 492.53648893 -91.21899093 492.53712043 C-89.52847051 492.53839935 -87.8379501 492.5396962 -86.1474297 492.5410108 C-70.29853524 492.55241457 -54.44973336 492.53930644 -38.60085409 492.51780933 C-25.00721247 492.49994182 -11.41370751 492.50303997 2.17993164 492.52148438 C17.97099894 492.54290035 33.76198509 492.55131249 49.55306488 492.53903532 C51.23763246 492.53776115 52.92220005 492.53650366 54.60676765 492.53526306 C55.84997752 492.53433741 55.84997752 492.53433741 57.11830274 492.53339306 C62.95360287 492.52994209 68.78885146 492.5357631 74.6241436 492.54518127 C81.73805746 492.55641087 88.85179482 492.55334124 95.96568852 492.5320583 C99.59407945 492.52156019 103.22217633 492.51740456 106.85056496 492.53065491 C110.78652344 492.54481081 114.72200253 492.52788519 118.65794373 492.50793457 C120.37259053 492.5213189 120.37259053 492.5213189 122.12187666 492.53497362 C128.41878032 492.47301523 134.01509596 492.20451714 139 488 C143.76044949 482.25000791 143.56238705 475.56467227 143.49206543 468.43499756 C143.49674442 467.28758976 143.50142341 466.14018197 143.50624418 464.95800424 C143.51715623 461.12248881 143.4997001 457.28763261 143.48242188 453.45214844 C143.48236516 450.69886327 143.48839932 447.94559984 143.49427795 445.19232178 C143.50394213 439.26868284 143.49951319 433.34519121 143.4858551 427.42156219 C143.46646855 418.85272524 143.47294166 410.28405344 143.48642892 401.71521214 C143.50799365 387.80590151 143.51472718 373.89662991 143.50927734 359.98730469 C143.50879639 358.73960636 143.50879639 358.73960636 143.50830573 357.46670201 C143.50593207 351.56113447 143.503027 345.65556724 143.5 339.75 C143.49653975 332.99707044 143.49332191 326.24414089 143.49072266 319.49121094 C143.49039715 318.65921558 143.49007163 317.82722022 143.48973626 316.97001287 C143.48479741 303.10672444 143.49545554 289.24349023 143.51729441 275.38021874 C143.53000312 266.8301056 143.5285241 258.28021561 143.50884354 249.73011449 C143.49625646 243.87682459 143.49767923 238.02364809 143.51021707 232.17035839 C143.51694312 228.79146645 143.5148073 225.41317694 143.4996357 222.03427124 C143.4841263 218.37491445 143.49293063 214.71640765 143.50793457 211.05706787 C143.49744567 209.98471067 143.48695678 208.91235347 143.47615004 207.8075006 C143.54173698 200.66235916 143.54173698 200.66235916 145.81591034 197.37533951 C148.99644795 195.3725284 151.24457874 194.93411542 155 195 C158.00437329 197.02189536 159.73233955 198.65675225 160.45670605 202.2919687 C160.64237779 205.26003867 160.65631275 208.19006441 160.62145996 211.16386414 C160.62784878 212.30447526 160.6342376 213.44508639 160.64082003 214.62026149 C160.65610859 218.45121563 160.63558112 222.28114203 160.61523438 226.11206055 C160.61597056 228.85517393 160.62419509 231.59825337 160.63204956 234.34135437 C160.64658181 241.02509003 160.63433503 247.70852207 160.61293632 254.39222898 C160.58892031 262.17966551 160.59064123 269.96703253 160.59324223 277.75449786 C160.59693347 291.65532394 160.57610145 305.55600713 160.54199219 319.45678711 C160.50893216 332.93501399 160.49472842 346.41309081 160.50097656 359.89135742 C160.50774864 374.57200875 160.50525472 389.25259721 160.48561716 403.93323928 C160.48405793 405.09913623 160.48405793 405.09913623 160.4824672 406.28858665 C160.48037634 407.84956794 160.47826536 409.4105492 160.47613403 410.97153043 C160.46925099 416.39458139 160.4685671 421.81761294 160.47001648 427.24066734 C160.47145993 433.85719697 160.46169819 440.47360455 160.43807012 447.09009375 C160.42625085 450.46352682 160.42067013 453.8366481 160.42490768 457.21012115 C160.42863157 460.87401315 160.41384193 464.53738558 160.39440918 468.20121765 C160.40240107 469.78660742 160.40240107 469.78660742 160.41055441 471.40402526 C160.3147194 481.90299236 157.8740659 490.90008488 151 499 C142.45611244 507.10165735 133.79109153 508.44621618 122.40565491 508.38768005 C121.14743547 508.39306559 119.88921604 508.39845113 118.59286875 508.40399987 C115.11655933 508.41841339 111.64048783 508.41422271 108.16416562 508.40683305 C104.40879366 508.40209351 100.65347259 508.41461814 96.89811707 508.42485046 C89.54745419 508.44202819 82.19687684 508.44288065 74.8461991 508.43763756 C68.87058081 508.43359286 62.89498775 508.43504298 56.91937065 508.44038582 C55.6426774 508.44150845 55.6426774 508.44150845 54.34019236 508.44265376 C52.61102021 508.44418527 50.88184806 508.44572362 49.15267592 508.44726873 C32.94466577 508.46098996 16.73670391 508.45555865 0.52869486 508.44408352 C-14.29250964 508.43415062 -29.11358932 508.44709346 -43.93477457 508.47101771 C-59.16200139 508.49541178 -74.38917007 508.50501588 -89.61641604 508.49836498 C-98.16185007 508.49487357 -106.7071881 508.49709977 -115.25260735 508.51461601 C-122.5267568 508.5293418 -129.80074262 508.5299685 -137.07488888 508.5125451 C-140.78442505 508.50403594 -144.49366896 508.50188323 -148.20318985 508.51719666 C-152.22858693 508.53360805 -156.25327968 508.51888958 -160.27867126 508.50120544 C-161.44541081 508.51081045 -162.61215035 508.52041546 -163.81424564 508.53031152 C-170.76960974 508.46744778 -175.9212494 507.42169186 -182 504 C-182.79792969 503.55398438 -183.59585938 503.10796875 -184.41796875 502.6484375 C-191.32091613 497.68075351 -195.59015415 490.97451535 -197.58055151 482.6916883 C-198.56420019 476.37940994 -198.27680836 469.915341 -198.26069641 463.54006958 C-198.26371864 461.8491222 -198.26760848 460.15817619 -198.27228898 458.46723258 C-198.28256848 453.82994463 -198.28038727 449.192734 -198.27610838 444.55543971 C-198.27364109 439.55056217 -198.28265537 434.54570324 -198.29014587 429.54083252 C-198.30289472 419.73938764 -198.30468634 409.93797015 -198.30234561 400.13651837 C-198.30056252 392.16959064 -198.3023119 384.20267122 -198.30657005 376.23574448 C-198.30716524 375.10181752 -198.30776043 373.96789056 -198.30837366 372.79960217 C-198.30958541 370.49602176 -198.31079954 368.19244134 -198.31201603 365.88886093 C-198.32289226 344.28621837 -198.32072867 322.68359142 -198.31463119 301.08094798 C-198.30946181 281.32002118 -198.3207179 261.55914366 -198.33972941 241.79822661 C-198.35910315 221.5051577 -198.36736463 201.21211211 -198.36360615 180.91903389 C-198.36169343 169.5270417 -198.36418868 158.13509148 -198.37832069 146.74310684 C-198.39022952 137.04514687 -198.39164493 127.34725469 -198.37953053 117.6492938 C-198.37363842 112.70225433 -198.37255167 107.75533888 -198.38453293 102.80830765 C-198.39537984 98.27695519 -198.3923025 93.74583048 -198.37827124 89.21448873 C-198.37562105 87.57795253 -198.37800099 85.94139856 -198.38600711 84.3048798 C-198.44785834 70.71538965 -197.19432962 60.30735485 -187.30078125 50.27734375 C-180.7963692 44.32836464 -173.65225069 41.86417152 -164.8425293 41.88647461 C-163.84186935 41.88655014 -162.84120941 41.88662567 -161.81022644 41.88670349 C-160.7423439 41.89186478 -159.67446136 41.89702606 -158.57421875 41.90234375 C-157.47149124 41.9037587 -156.36876373 41.90517365 -155.23262024 41.90663147 C-151.71755233 41.91221996 -148.20254859 41.92477041 -144.6875 41.9375 C-142.30143321 41.94251648 -139.91536543 41.94707913 -137.52929688 41.95117188 C-131.6861761 41.96218563 -125.84309263 41.97891236 -120 42 C-120.0155896 41.23675415 -120.0311792 40.4735083 -120.04724121 39.68713379 C-120.05936646 38.69016479 -120.0714917 37.6931958 -120.08398438 36.66601562 C-120.09957397 35.67589478 -120.11516357 34.68577393 -120.13122559 33.66564941 C-120 31 -120 31 -118.65625 28.34375 C-114.38191982 26.18144179 -110.2185089 26.42317218 -105.5 26.5 C-104.54996094 26.48453125 -103.59992188 26.4690625 -102.62109375 26.453125 C-95.73203439 26.49188201 -95.73203439 26.49188201 -92.34375 28.84375 C-91 31 -91 31 -91 34 C-87.89420506 33.97720599 -84.79209516 33.89992181 -81.6875 33.8125 C-80.80642578 33.80669922 -79.92535156 33.80089844 -79.01757812 33.79492188 C-76.57824603 33.71144663 -74.36999577 33.58806985 -72 33 C-69.86381736 30.66690785 -69.86381736 30.66690785 -69 28 C-68 27 -68 27 -65.49609375 26.90234375 C-64.48675781 26.91394531 -63.47742188 26.92554687 -62.4375 26.9375 C-61.42558594 26.94652344 -60.41367188 26.95554687 -59.37109375 26.96484375 C-58.58863281 26.97644531 -57.80617187 26.98804687 -57 27 C-56.95875 26.05125 -56.9175 25.1025 -56.875 24.125 C-55.57124234 15.28445151 -48.80534775 7.39156072 -42 2 C-29.62437791 -5.49247 -12.91205594 -7.41865639 0 0 Z " fill="#030202" transform="translate(275,4)"/>
<path d="M0 0 C1.02090729 0.00007553 2.04181458 0.00015106 3.09365845 0.00022888 C4.75151871 0.00797081 4.75151871 0.00797081 6.44287109 0.01586914 C7.57203949 0.01728409 8.70120789 0.01869904 9.86459351 0.02015686 C13.48185848 0.02576796 17.09906223 0.03832237 20.71630859 0.05102539 C23.16422437 0.05603896 25.61214111 0.06060211 28.06005859 0.06469727 C34.07049896 0.075741 40.08089339 0.09301311 46.09130859 0.11352539 C46.09130859 5.39352539 46.09130859 10.67352539 46.09130859 16.11352539 C44.20641724 16.13539917 44.20641724 16.13539917 42.28344727 16.15771484 C37.62592968 16.21564143 32.96889843 16.2928745 28.31176758 16.37597656 C26.29524625 16.40925249 24.27863117 16.43727607 22.26196289 16.45996094 C19.36482759 16.49345795 16.46855342 16.54577084 13.57177734 16.60180664 C12.66856247 16.60819656 11.7653476 16.61458649 10.83476257 16.62117004 C9.57379509 16.65086128 9.57379509 16.65086128 8.28735352 16.68115234 C7.17815804 16.69780693 7.17815804 16.69780693 6.04655457 16.71479797 C3.46314933 17.24162402 2.69959178 18.03384045 1.09130859 20.11352539 C0.64139114 22.62380306 0.64139114 22.62380306 0.71657848 25.50308228 C0.70937194 26.6288587 0.7021654 27.75463512 0.69474047 28.91452599 C0.70211476 30.15662645 0.70948904 31.39872692 0.71708679 32.6784668 C0.71311239 33.99381723 0.70913798 35.30916767 0.70504314 36.66437721 C0.69442567 40.32319864 0.70260491 43.98177687 0.71379364 47.64058781 C0.72261468 51.58338055 0.71419822 55.52614074 0.70793152 59.46893311 C0.6984292 67.19594048 0.70505587 74.92285466 0.71719446 82.64985514 C0.73079581 91.64199087 0.72917825 100.63410424 0.72706113 109.62624764 C0.72386915 125.66694794 0.73555092 141.70760387 0.75512695 157.74829102 C0.774132 173.32512768 0.78121476 188.90191234 0.77563477 204.47875977 C0.76958135 221.42740122 0.76974601 238.37601979 0.7811206 255.32465935 C0.78232793 257.13080724 0.78353392 258.93695513 0.78473854 260.74310303 C0.78534208 261.63183943 0.78594562 262.52057584 0.78656745 263.43624365 C0.79045204 269.70914634 0.79005088 275.98204053 0.78815269 282.25494385 C0.78603382 289.89605994 0.79123139 297.5371304 0.80576625 305.17823362 C0.81302587 309.07930974 0.81707397 312.98031929 0.81252289 316.88140106 C0.80771659 321.10386152 0.81833168 325.32613872 0.83061218 329.54858398 C0.82683286 330.79068445 0.82305354 332.03278492 0.81915969 333.3125248 C0.82499188 334.43830122 0.83082407 335.56407764 0.836833 336.72396851 C0.83769978 337.6993627 0.83856655 338.67475689 0.8394596 339.67970848 C0.92695355 342.37194701 0.92695355 342.37194701 3.09130859 345.11352539 C6.15687457 345.84695967 6.15687457 345.84695967 9.09130859 346.11352539 C8.43130859 346.44352539 7.77130859 346.77352539 7.09130859 347.11352539 C7.09130859 353.71352539 7.09130859 360.31352539 7.09130859 367.11352539 C5.44130859 367.77352539 3.79130859 368.43352539 2.09130859 369.11352539 C0.9382131 371.41971637 0.95298713 372.7657036 0.93017578 375.33203125 C0.92056824 376.2031102 0.91096069 377.07418915 0.90106201 377.97166443 C0.89468719 379.38573326 0.89468719 379.38573326 0.88818359 380.82836914 C0.87963348 382.27839073 0.87963348 382.27839073 0.87091064 383.75770569 C0.86145524 385.80460513 0.85492452 387.85151984 0.85107422 389.8984375 C0.84135868 393.03485527 0.81033626 396.17062061 0.77880859 399.30688477 C0.77227967 401.29320899 0.76702877 403.27953791 0.76318359 405.26586914 C0.75083679 406.20655746 0.73848999 407.14724579 0.72576904 408.11643982 C0.72877014 408.99067093 0.73177124 409.86490204 0.73486328 410.765625 C0.73121765 411.53458603 0.72757202 412.30354706 0.72381592 413.09580994 C1.21932245 415.81638437 1.8356859 416.49325052 4.09130859 418.11352539 C6.67140966 418.40818112 9.0104674 418.51836246 11.59118652 418.49447632 C12.36186352 418.49915629 13.13254052 418.50383626 13.92657137 418.50865805 C16.51746446 418.52065488 19.10783315 418.51113242 21.69873047 418.50170898 C23.55322581 418.50577288 25.40771872 418.51111373 27.26220703 418.51763916 C32.30812165 418.53134786 37.35385279 418.52599746 42.39977074 418.5165019 C47.68241247 418.50891463 52.96503832 418.51594917 58.24768066 418.5206604 C67.12852804 418.5261245 76.00930068 418.5189132 84.89013672 418.50463867 C95.14140963 418.48835108 105.39250318 418.49356968 115.64377165 418.51011789 C124.44989154 418.52376217 133.25595762 418.52563684 142.06208467 418.51780188 C147.31900243 418.51313634 152.57583613 418.51246884 157.83274841 418.52241135 C162.78382686 418.53112009 167.73467612 418.52498801 172.68572998 418.50772858 C174.49684775 418.5037828 176.307985 418.50486481 178.11909485 418.51151657 C187.55542183 418.54295983 196.09988583 418.37638569 205.09130859 415.11352539 C206.19603516 414.73711914 207.30076172 414.36071289 208.43896484 413.97290039 C223.651465 407.75656939 234.76429177 396.56878416 246.28271484 385.16040039 C247.11286606 384.33832092 247.94301727 383.51624146 248.79832458 382.66925049 C250.53830389 380.94298743 252.27681983 379.21524822 254.01391602 377.48608398 C255.77117059 375.74036784 257.53288737 373.99913174 259.29907227 372.26245117 C276.74046718 355.11128677 292.75954359 337.97769744 293.34578419 312.11440277 C293.35794098 309.90886126 293.35941164 307.70324324 293.352005 305.49768066 C293.35583055 304.27350008 293.3596561 303.04931951 293.36359757 301.78804255 C293.3720783 298.42094253 293.37171424 295.05406298 293.36741698 291.68696976 C293.36493698 288.04425176 293.37397917 284.40155876 293.38145447 280.7588501 C293.39416427 273.63722363 293.39600015 266.51563494 293.3936542 259.39399904 C293.39186819 253.60814618 293.39362672 247.82230474 293.39787865 242.03645325 C293.39877143 240.79940161 293.39877143 240.79940161 293.39968225 239.53735903 C293.40089402 237.8618871 293.40210816 236.18641516 293.40332463 234.51094323 C293.41418396 218.82387848 293.41204417 203.13683527 293.40593978 187.44976932 C293.40076127 173.09031307 293.41205351 158.73092446 293.431038 144.3714816 C293.45038998 129.62106058 293.45867774 114.87067163 293.45491475 100.12023783 C293.45300007 91.84109676 293.45551705 83.56201341 293.46962929 75.28288269 C293.48150975 68.24215328 293.48298496 61.20151719 293.47083912 54.16078657 C293.4649294 50.56745493 293.46390867 46.9742943 293.47584152 43.38097382 C293.4886077 39.49173033 293.47828722 35.60274922 293.4655304 31.71350098 C293.47290468 30.57024023 293.48027897 29.42697948 293.48787671 28.24907446 C293.48067017 27.21183312 293.47346363 26.17459178 293.4660387 25.10591888 C293.46612123 23.75869192 293.46612123 23.75869192 293.46620542 22.38424826 C293.01510591 19.65197123 292.2724652 18.76823218 290.09130859 17.11352539 C288.10263007 16.64515868 288.10263007 16.64515868 285.89526367 16.68115234 C285.05461868 16.66135818 284.21397369 16.64156403 283.34785461 16.62117004 C282.44463974 16.61478012 281.54142487 16.6083902 280.61083984 16.60180664 C279.6828508 16.58385544 278.75486176 16.56590424 277.79875183 16.54740906 C274.83381702 16.49321248 271.86904404 16.45938039 268.90380859 16.42602539 C266.8940204 16.39286057 264.88425359 16.3583717 262.87451172 16.32250977 C257.94689395 16.2374806 253.01932495 16.17071401 248.09130859 16.11352539 C248.09130859 10.83352539 248.09130859 5.55352539 248.09130859 0.11352539 C255.08386124 0.01442135 262.07600225 -0.05805598 269.0690918 -0.10620117 C271.44644292 -0.12627824 273.82374489 -0.15354574 276.20092773 -0.18823242 C279.62414704 -0.23692075 283.04671165 -0.25948314 286.47021484 -0.27709961 C287.52777481 -0.29774475 288.58533478 -0.31838989 289.67494202 -0.33966064 C296.06596001 -0.34159054 299.9965079 0.12989988 305.09130859 4.11352539 C310.18717293 9.36379217 310.80706575 14.00197835 310.703125 21.11621094 C310.70878983 22.09591858 310.71445465 23.07562622 310.72029114 24.08502197 C310.73374147 27.30715771 310.71288752 30.52815841 310.69287109 33.75024414 C310.69837245 35.99510975 310.70649811 38.23997034 310.71713257 40.4848175 C310.73999476 46.38359064 310.73580436 52.28199278 310.72332764 58.18078613 C310.70500198 67.63268106 310.71491831 77.08436036 310.74918747 86.53620338 C310.75530196 89.83791576 310.74202081 93.13916564 310.72720337 96.44084167 C310.73015046 98.46023682 310.73380461 100.4796311 310.73828125 102.49902344 C310.72899094 103.41806961 310.71970062 104.33711578 310.71012878 105.28401184 C310.73666599 110.14297364 310.73666599 110.14297364 312.3633728 114.65193176 C314.25003563 116.46583328 314.25003563 116.46583328 318.09130859 117.11352539 C318.09130859 124.04352539 318.09130859 130.97352539 318.09130859 138.11352539 C316.44130859 138.77352539 314.79130859 139.43352539 313.09130859 140.11352539 C310.61236703 142.59246696 310.84121314 143.29597851 310.84076881 146.71013832 C310.83577012 147.68453759 310.83077142 148.65893686 310.82562125 149.66286337 C310.83261607 151.2801377 310.83261607 151.2801377 310.8397522 152.93008423 C310.83678206 154.06954321 310.83381192 155.2090022 310.83075178 156.38299024 C310.82441376 159.55551818 310.82703188 162.72789776 310.83327055 165.90042138 C310.83779149 169.31843993 310.83077074 172.73643562 310.82496643 176.15444946 C310.81631989 182.0814151 310.81452861 188.00835089 310.8169136 193.93532181 C310.82000695 202.51351492 310.80838698 211.09164185 310.79236381 219.66981833 C310.76637852 233.59782544 310.74637291 247.5258326 310.73291016 261.45385742 C310.73209979 262.28800007 310.73128942 263.12214272 310.73045449 263.98156242 C310.71924081 275.8106331 310.71395393 287.63969908 310.71106736 299.46877436 C310.71086338 300.30109787 310.71065939 301.13342137 310.71044922 301.9909668 C310.71024928 302.82227689 310.71004935 303.65358698 310.70984335 304.51008828 C310.70610904 318.3777382 310.6870121 332.24531657 310.65535486 346.11293066 C310.63644404 354.66721792 310.63047644 363.22132167 310.64117204 371.77562408 C310.64749607 377.64116357 310.63943676 383.50657164 310.62011792 389.37208231 C310.6094448 392.7554642 310.60745713 396.13826217 310.6185894 399.52168274 C310.62969504 403.19311776 310.61629501 406.86368289 310.59683228 410.5350647 C310.60595693 411.59986325 310.61508159 412.6646618 310.62448275 413.76172698 C310.56031807 419.98110969 309.83660092 424.99267487 306.09130859 430.11352539 C301.46498665 433.7957 297.89230303 435.23554233 292.04368305 435.25053978 C290.99414143 435.25561432 289.94459981 435.26068887 288.86325389 435.26591718 C287.70627394 435.26641494 286.54929398 435.2669127 285.35725403 435.26742554 C284.13118602 435.27180779 282.90511801 435.27619004 281.64189643 435.28070509 C278.23223417 435.29177588 274.82261782 435.29831944 271.4129442 435.30288625 C267.73795351 435.30884164 264.06297976 435.32045163 260.38800049 435.33117676 C251.50964713 435.35570188 242.63128817 435.37032791 233.75291136 435.38323683 C231.24547772 435.38694862 228.73804464 435.39092186 226.23061156 435.39498949 C210.66135729 435.42022545 195.09210213 435.44227958 179.52283192 435.45471764 C175.91634429 435.45764735 172.3098567 435.46060902 168.70336914 435.46362305 C167.80698908 435.4643691 166.91060902 435.46511515 165.98706593 435.46588381 C151.46554961 435.47853802 136.94415571 435.51176194 122.42269663 435.55342488 C107.51543861 435.59584428 92.60824327 435.61941266 77.70092505 435.6246382 C69.33034181 435.62805227 60.95994989 435.63980695 52.58942604 435.67274094 C45.46078171 435.7007427 38.33236793 435.71174028 31.20367286 435.70054547 C27.56712314 435.6953591 23.93105622 435.69824336 20.29457664 435.72301102 C16.34961559 435.74965515 12.4053124 435.73744221 8.46028137 435.7215271 C7.31445503 435.73540919 6.16862868 435.74929127 4.98808032 435.76359403 C-1.81753008 435.69588291 -6.88464873 434.97705889 -11.90869141 430.11352539 C-17.78999486 423.47627237 -16.46557099 413.88586528 -16.41662598 405.5887146 C-16.42123734 403.89078793 -16.42759184 402.19286525 -16.43553495 400.49495089 C-16.45221873 395.8384535 -16.44398626 391.18228442 -16.43159008 386.52578592 C-16.42253818 381.50052075 -16.43650993 376.47531195 -16.44750977 371.45005798 C-16.46529727 361.60981736 -16.46145417 351.76969877 -16.4498592 341.92945336 C-16.44082711 333.93340331 -16.43959991 325.93738746 -16.44395447 317.94133377 C-16.4445674 316.80347656 -16.44518033 315.66561934 -16.44581184 314.49328161 C-16.44709073 312.18180126 -16.44838758 309.87032092 -16.4497022 307.55884059 C-16.46110842 285.88428704 -16.44799309 264.20980117 -16.42650074 242.53525873 C-16.40862492 223.93175645 -16.4117378 205.328354 -16.43017578 186.72485352 C-16.45157345 165.12496504 -16.46001485 143.52513585 -16.44772673 121.92523825 C-16.44645251 119.622854 -16.44519503 117.32046975 -16.44395447 115.01808548 C-16.44333737 113.88524033 -16.44272026 112.75239519 -16.44208446 111.5852214 C-16.43862861 103.59643578 -16.44446487 95.60768773 -16.45387268 87.61890793 C-16.46508155 77.88677195 -16.4620758 68.15476504 -16.4407497 58.42264389 C-16.43022509 53.45581915 -16.42614159 48.48920977 -16.43934631 43.52238655 C-16.45124648 38.97760207 -16.444747 34.43323301 -16.42343611 29.88848634 C-16.41896001 28.24260418 -16.42125886 26.59668707 -16.43093926 24.95082729 C-16.44307706 22.71611865 -16.43065669 20.48283889 -16.41205597 18.24820518 C-16.41140656 17.00629964 -16.41075715 15.7643941 -16.41008806 14.48485506 C-15.63657163 9.28382536 -13.16316068 6.21865309 -9.28369141 2.80102539 C-5.8649518 0.37192093 -4.14831362 -0.01021752 0 0 Z " fill="#FB840A" transform="translate(108.90869140625,61.886474609375)"/>
<path d="M0 0 C7.75986914 4.62583475 12.51916308 10.81279552 16.375 18.875 C18.17247505 27.86237525 17.2347265 35.84849752 13 44 C6.6282256 52.1272015 -1.13304068 59.32733876 -8.41015625 66.6484375 C-8.98767576 67.23003254 -9.56519527 67.81162758 -10.16021538 68.41084671 C-13.2074975 71.4787913 -16.25790246 74.54359181 -19.31079102 77.60595703 C-22.4449295 80.7512265 -25.56719288 83.90802329 -28.68708134 87.06741905 C-31.10917668 89.51571277 -33.54016755 91.9550274 -35.97360039 94.39204788 C-37.12871945 95.55201033 -38.2804841 96.71532403 -39.42866707 97.88215256 C-50.39543349 109.01612955 -50.39543349 109.01612955 -58 112 C-58.928125 112.4125 -59.85625 112.825 -60.8125 113.25 C-69.43474949 115.27876459 -77.33800292 114.4851219 -85 110 C-86.83000024 108.48254888 -88.60836419 106.90187392 -90.34765625 105.28125 C-90.85901123 104.80511765 -91.37036621 104.32898529 -91.8972168 103.83842468 C-98.20289672 97.93055441 -104.3747476 91.88338328 -110.50292969 85.79223633 C-111.84422662 84.46258146 -113.19000897 83.13743737 -114.54003906 81.81665039 C-116.52621422 79.8732272 -118.49872227 77.91680561 -120.46875 75.95703125 C-121.06667358 75.37661575 -121.66459717 74.79620026 -122.28063965 74.19819641 C-126.26601449 70.19205994 -128.7673041 66.17862395 -131 61 C-131.61875 59.6078125 -131.61875 59.6078125 -132.25 58.1875 C-134.2841823 49.54222524 -133.36391307 41.74948574 -129 34 C-123.93176549 26.68634513 -116.82968073 20.90444094 -108 19 C-98.8942351 18.04843293 -90.69141607 19.42720192 -83.296875 25.05859375 C-80.77510228 27.2972333 -78.3716221 29.60354416 -76 32 C-75.35417969 32.63292969 -74.70835937 33.26585937 -74.04296875 33.91796875 C-72.67923909 35.26253593 -71.33648283 36.62834657 -70 38 C-66.99625291 36.65678641 -64.95601057 35.1850844 -62.67529297 32.82299805 C-62.04718719 32.17860275 -61.41908142 31.53420746 -60.77194214 30.87028503 C-60.10212311 30.17445816 -59.43230408 29.47863129 -58.7421875 28.76171875 C-57.29732336 27.28667006 -55.85199579 25.81207519 -54.40625 24.33789062 C-52.14323301 22.01932597 -49.88431622 19.69714808 -47.63378906 17.36645508 C-45.45221667 15.11169971 -43.25472751 12.87343912 -41.0546875 10.63671875 C-40.39701385 9.94696457 -39.73934021 9.25721039 -39.06173706 8.54655457 C-28.24060353 -2.38885884 -14.39556596 -6.45160133 0 0 Z " fill="#020303" transform="translate(314,127)"/>
<path d="M0 0 C10.89 0 21.78 0 33 0 C33.11308375 34.86313056 33.20257601 69.72619678 33.25532665 104.58947103 C33.26158002 108.70743412 33.26805164 112.82539684 33.2746582 116.94335938 C33.27662553 118.17305331 33.27662553 118.17305331 33.2786326 119.42758955 C33.30037622 132.69343709 33.33979196 145.95917606 33.38576398 159.22495924 C33.43255773 172.84165018 33.46030156 186.45828434 33.47044247 200.07505238 C33.47729561 208.47419592 33.49892325 216.87303253 33.53958233 225.27208157 C33.56605678 231.03531459 33.5739904 236.79838943 33.56750689 242.56167881 C33.56431111 245.88468435 33.57188522 249.20672372 33.59602737 252.52970695 C33.62096386 256.13935973 33.61490116 259.74770736 33.60127258 263.35739136 C33.62311889 264.91871491 33.62311889 264.91871491 33.64540654 266.51158035 C33.56377799 274.52946825 31.54118677 281.17060507 26.01016122 287.15178668 C19.53079853 293.28934357 13.3310975 295.46617956 4.58618164 295.34057617 C3.37032883 295.34123329 3.37032883 295.34123329 2.12991333 295.34190369 C-0.52692461 295.33982765 -3.1831172 295.31655327 -5.83984375 295.29296875 C-7.6907161 295.28736857 -9.54159292 295.28310046 -11.39247131 295.28010559 C-16.24720693 295.26869006 -21.10167026 295.23925137 -25.95629883 295.20599365 C-30.91679197 295.17522161 -35.8773294 295.16158504 -40.83789062 295.14648438 C-50.55871291 295.11437839 -60.27933375 295.06322206 -70 295 C-66.81835313 291.06332985 -64.6199567 288.3514174 -59.9375 286.1875 C-59.10089844 285.78917969 -58.26429688 285.39085937 -57.40234375 284.98046875 C-53.5138769 283.39346846 -50.16135043 282.87807476 -45.96484375 282.82421875 C-31.1337755 282.50614596 -19.12124507 281.89657345 -8 271 C-2.37623242 264.59954841 -1.3892879 257.36250763 1 249 C-47.51 249 -96.02 249 -146 249 C-146 248.67 -146 248.34 -146 248 C-145.18332194 247.99761165 -144.36664389 247.99522329 -143.52521801 247.99276257 C-123.67084686 247.9336749 -103.81659773 247.85816501 -83.96235943 247.76428509 C-74.36106652 247.7192835 -64.75981107 247.67987898 -55.15844727 247.65356445 C-46.79172939 247.63061963 -38.42512963 247.59726121 -30.05850536 247.55129844 C-25.62676625 247.52731861 -21.19514445 247.50862112 -16.7633419 247.50238609 C-12.59447502 247.49635665 -8.42590846 247.47643503 -4.25715256 247.44572449 C-2.72489186 247.43690975 -1.19259197 247.43322875 0.33969307 247.43499184 C2.42780629 247.43663629 4.51499484 247.4200184 6.60298157 247.39872742 C8.35761451 247.39181397 8.35761451 247.39181397 10.14769459 247.38476086 C12.98366282 247.22357355 12.98366282 247.22357355 14.8724699 245.69382954 C16.79751089 242.80194107 16.41822793 240.34582347 16 237 C11.3571962 232.97091035 11.3571962 232.97091035 1 233 C1 217.49 1 201.98 1 186 C4.63 185.67 8.26 185.34 12 185 C13.32 184.01 14.64 183.02 16 182 C16.66666667 178.5 16.66666667 178.5 16 175 C12.98509392 171.97804975 10.42536781 171.5610338 6.25 171.3125 C4.77273438 171.21388672 4.77273438 171.21388672 3.265625 171.11328125 C2.51796875 171.07589844 1.7703125 171.03851563 1 171 C0.99576806 170.14117029 0.99153612 169.28234058 0.98717594 168.39748573 C0.88398852 147.52540427 0.77536881 126.65335728 0.66066074 105.78133583 C0.60532118 95.68789465 0.55183798 85.59444993 0.50268555 75.50097656 C0.45985269 66.70618907 0.41357698 57.91142769 0.36312145 49.1166805 C0.33651327 44.45752173 0.31166002 39.79836816 0.29092598 35.13917923 C0.27137411 30.75784028 0.24723471 26.37655105 0.21950912 21.99525642 C0.210131 20.38354836 0.20245846 18.77182938 0.19658089 17.16010475 C0.18833261 14.96683986 0.17405965 12.77369607 0.15821838 10.58047485 C0.15176583 9.35080301 0.14531328 8.12113117 0.1386652 6.85419655 C0.19490571 4.05374138 0.19490571 4.05374138 -1 2 C-0.67 1.34 -0.34 0.68 0 0 Z " fill="#DEF5FC" transform="translate(355,93)"/>
<path d="M0 0 C6.96300406 5.7981406 9.52792245 12.79609374 10.6875 21.5625 C10.790625 22.696875 10.89375 23.83125 11 25 C14.12380773 26.04126924 16.38517854 26.15552332 19.66479492 26.20532227 C20.82577194 26.22526749 21.98674896 26.24521271 23.1829071 26.26576233 C25.06270012 26.29083107 25.06270012 26.29083107 26.98046875 26.31640625 C28.26359451 26.33718735 29.54672028 26.35796844 30.86872864 26.37937927 C34.27662815 26.43451906 37.68458741 26.48396389 41.09259033 26.53222656 C44.57154648 26.58250079 48.05041607 26.63815591 51.52929688 26.69335938 C58.35278951 26.80084189 65.17636036 26.90230877 72 27 C72.12375961 32.88981485 72.21441514 38.77887012 72.2746582 44.66967773 C72.2997755 46.67274156 72.33387595 48.67571398 72.37719727 50.6784668 C72.43797188 53.56061366 72.46623732 56.44154721 72.48828125 59.32421875 C72.51408768 60.21711105 72.5398941 61.11000336 72.56648254 62.029953 C72.5668602 62.87044693 72.56723785 63.71094086 72.56762695 64.5769043 C72.57873001 65.31192673 72.58983307 66.04694916 72.60127258 66.804245 C71.65916932 70.24466123 69.70532666 71.74504806 67 74 C63.86871338 74.6292057 63.86871338 74.6292057 60.28222656 74.63491821 C59.61994678 74.64271817 58.95766701 74.65051812 58.27531815 74.65855443 C56.06318249 74.67844793 53.85277242 74.66272288 51.640625 74.64697266 C50.05195107 74.65375006 48.463285 74.66265388 46.87463379 74.67352295 C42.56461815 74.6963087 38.25520122 74.68748318 33.94517517 74.67162752 C29.43381136 74.65896468 24.92249865 74.6707097 20.41113281 74.67855835 C12.83519287 74.68765381 5.25949668 74.67566978 -2.31640625 74.65185547 C-11.0740398 74.6246443 -19.83109134 74.63345855 -28.58871078 74.6609875 C-36.10904801 74.68368057 -43.62921006 74.6868777 -51.14957047 74.67379415 C-55.64062286 74.6660007 -60.13140172 74.66495504 -64.62243652 74.68147659 C-68.84486624 74.6959251 -73.06654593 74.68589334 -77.28889465 74.65700531 C-78.83806615 74.65039643 -80.38730082 74.6522889 -81.93644714 74.66331863 C-84.05255755 74.67699552 -86.16626889 74.65983875 -88.28222656 74.63491821 C-89.46576721 74.63303308 -90.64930786 74.63114796 -91.86871338 74.6292057 C-95.92208801 73.81471417 -97.42419322 72.15943417 -100 69 C-100.60127258 66.804245 -100.60127258 66.804245 -100.56762695 64.5769043 C-100.5672493 63.73641037 -100.56687164 62.89591644 -100.56648254 62.029953 C-100.54067612 61.1370607 -100.51486969 60.2441684 -100.48828125 59.32421875 C-100.48120651 58.3990596 -100.47413177 57.47390045 -100.46684265 56.52070618 C-100.43892815 53.57546997 -100.37619557 50.63215827 -100.3125 47.6875 C-100.2874133 45.68687648 -100.26460078 43.68622306 -100.24414062 41.68554688 C-100.18911108 36.78962684 -100.10285901 31.89513932 -100 27 C-99.37931641 26.94956543 -98.75863281 26.89913086 -98.11914062 26.84716797 C-97.30638672 26.77127441 -96.49363281 26.69538086 -95.65625 26.6171875 C-94.44678711 26.51059814 -94.44678711 26.51059814 -93.21289062 26.40185547 C-90.10046837 25.83664728 -88.79741449 24.54633719 -87 22 C-86.67 21.01 -86.34 20.02 -86 19 C-79.4 19 -72.8 19 -66 19 C-65.01 20.98 -64.02 22.96 -63 25 C-61.42112144 26.57887856 -59.819407 26.12978098 -57.6328125 26.1328125 C-56.74722656 26.13410156 -55.86164063 26.13539062 -54.94921875 26.13671875 C-54.01722656 26.13285156 -53.08523437 26.12898438 -52.125 26.125 C-51.20074219 26.12886719 -50.27648437 26.13273437 -49.32421875 26.13671875 C-48.43605469 26.13542969 -47.54789063 26.13414063 -46.6328125 26.1328125 C-45.40908936 26.13112061 -45.40908936 26.13112061 -44.16064453 26.12939453 C-41.81613627 26.08257321 -41.81613627 26.08257321 -39 25 C-38.91363281 24.154375 -38.82726562 23.30875 -38.73828125 22.4375 C-37.46449387 12.15371201 -34.88981631 5.66022998 -26.67578125 -0.8125 C-18.60562329 -6.53121333 -8.14276577 -4.85013733 0 0 Z " fill="#81ACDF" transform="translate(270,19)"/>
<path d="M0 0 C1.02090729 0.00007553 2.04181458 0.00015106 3.09365845 0.00022888 C4.75151871 0.00797081 4.75151871 0.00797081 6.44287109 0.01586914 C7.57203949 0.01728409 8.70120789 0.01869904 9.86459351 0.02015686 C13.48185848 0.02576796 17.09906223 0.03832237 20.71630859 0.05102539 C23.16422437 0.05603896 25.61214111 0.06060211 28.06005859 0.06469727 C34.07049896 0.075741 40.08089339 0.09301311 46.09130859 0.11352539 C46.09130859 5.39352539 46.09130859 10.67352539 46.09130859 16.11352539 C44.20641724 16.13539917 44.20641724 16.13539917 42.28344727 16.15771484 C37.62592968 16.21564143 32.96889843 16.2928745 28.31176758 16.37597656 C26.29524625 16.40925249 24.27863117 16.43727607 22.26196289 16.45996094 C19.36482759 16.49345795 16.46855342 16.54577084 13.57177734 16.60180664 C12.66856247 16.60819656 11.7653476 16.61458649 10.83476257 16.62117004 C9.57379509 16.65086128 9.57379509 16.65086128 8.28735352 16.68115234 C7.17815804 16.69780693 7.17815804 16.69780693 6.04655457 16.71479797 C3.46314933 17.24162402 2.69959178 18.03384045 1.09130859 20.11352539 C0.64139114 22.62380306 0.64139114 22.62380306 0.71657848 25.50308228 C0.70937194 26.6288587 0.7021654 27.75463512 0.69474047 28.91452599 C0.70211476 30.15662645 0.70948904 31.39872692 0.71708679 32.6784668 C0.71311239 33.99381723 0.70913798 35.30916767 0.70504314 36.66437721 C0.69442567 40.32319864 0.70260491 43.98177687 0.71379364 47.64058781 C0.72261468 51.58338055 0.71419822 55.52614074 0.70793152 59.46893311 C0.6984292 67.19594048 0.70505587 74.92285466 0.71719446 82.64985514 C0.73079581 91.64199087 0.72917825 100.63410424 0.72706113 109.62624764 C0.72386915 125.66694794 0.73555092 141.70760387 0.75512695 157.74829102 C0.774132 173.32512768 0.78121476 188.90191234 0.77563477 204.47875977 C0.76958135 221.42740122 0.76974601 238.37601979 0.7811206 255.32465935 C0.78232793 257.13080724 0.78353392 258.93695513 0.78473854 260.74310303 C0.78534208 261.63183943 0.78594562 262.52057584 0.78656745 263.43624365 C0.79045204 269.70914634 0.79005088 275.98204053 0.78815269 282.25494385 C0.78603382 289.89605994 0.79123139 297.5371304 0.80576625 305.17823362 C0.81302587 309.07930974 0.81707397 312.98031929 0.81252289 316.88140106 C0.80771659 321.10386152 0.81833168 325.32613872 0.83061218 329.54858398 C0.82683286 330.79068445 0.82305354 332.03278492 0.81915969 333.3125248 C0.82499188 334.43830122 0.83082407 335.56407764 0.836833 336.72396851 C0.83769978 337.6993627 0.83856655 338.67475689 0.8394596 339.67970848 C0.92695355 342.37194701 0.92695355 342.37194701 3.09130859 345.11352539 C6.15687457 345.84695967 6.15687457 345.84695967 9.09130859 346.11352539 C8.43130859 346.44352539 7.77130859 346.77352539 7.09130859 347.11352539 C7.09130859 353.71352539 7.09130859 360.31352539 7.09130859 367.11352539 C5.44130859 367.77352539 3.79130859 368.43352539 2.09130859 369.11352539 C0.9382131 371.41971637 0.95298713 372.7657036 0.93017578 375.33203125 C0.92056824 376.2031102 0.91096069 377.07418915 0.90106201 377.97166443 C0.89468719 379.38573326 0.89468719 379.38573326 0.88818359 380.82836914 C0.87963348 382.27839073 0.87963348 382.27839073 0.87091064 383.75770569 C0.86145524 385.80460513 0.85492452 387.85151984 0.85107422 389.8984375 C0.84135868 393.03485527 0.81033626 396.17062061 0.77880859 399.30688477 C0.77227967 401.29320899 0.76702877 403.27953791 0.76318359 405.26586914 C0.75083679 406.20655746 0.73848999 407.14724579 0.72576904 408.11643982 C0.72877014 408.99067093 0.73177124 409.86490204 0.73486328 410.765625 C0.73121765 411.53458603 0.72757202 412.30354706 0.72381592 413.09580994 C1.19361224 415.67522269 2.04004213 416.52353637 4.09130859 418.11352539 C5.08130859 418.44352539 6.07130859 418.77352539 7.09130859 419.11352539 C7.09130859 420.43352539 7.09130859 421.75352539 7.09130859 423.11352539 C3.44549172 423.14240051 -0.20029604 423.16028124 -3.84619141 423.17602539 C-4.88710937 423.1844043 -5.92802734 423.1927832 -7.00048828 423.20141602 C-8.48452148 423.20625 -8.48452148 423.20625 -9.99853516 423.21118164 C-11.37319946 423.21903687 -11.37319946 423.21903687 -12.77563477 423.22705078 C-14.90869141 423.11352539 -14.90869141 423.11352539 -15.90869141 422.11352539 C-16.01037447 419.94043386 -16.03978692 417.76396507 -16.04291248 415.58849812 C-16.04526471 414.89522027 -16.04761694 414.20194242 -16.05004045 413.48765615 C-16.05676412 411.13525418 -16.05627122 408.78290702 -16.05586243 406.43049622 C-16.05915897 404.7386155 -16.06288409 403.04673558 -16.06700391 401.35485667 C-16.07705605 396.68265168 -16.08074585 392.01045955 -16.08339322 387.33824527 C-16.08728683 382.30810233 -16.09686585 377.27796966 -16.10560608 372.24783325 C-16.12539821 360.0879389 -16.1354406 347.92804368 -16.14433387 335.76813725 C-16.14871265 330.0472491 -16.15408055 324.32636188 -16.15932274 318.60547447 C-16.17633848 299.59666161 -16.19083342 280.58784934 -16.19807148 261.57903004 C-16.1999815 256.64253043 -16.20190181 251.70603084 -16.20385742 246.76953125 C-16.20434116 245.54252794 -16.2048249 244.31552464 -16.2053233 243.05133941 C-16.21362638 223.16762547 -16.23896646 203.28397165 -16.2714381 183.40028397 C-16.30447707 163.00349829 -16.32251741 142.60674319 -16.32571572 122.2099306 C-16.32788385 110.75087077 -16.33667664 99.29189857 -16.3621769 87.83286476 C-16.38384082 78.07495941 -16.39195563 68.31716294 -16.38221011 58.55923627 C-16.37765276 53.57827047 -16.37963467 48.59752954 -16.39897156 43.61659431 C-16.41651406 39.05859972 -16.41567841 34.50099553 -16.40007427 29.9429973 C-16.39768456 28.29218641 -16.40209184 26.64134911 -16.41390292 24.99057875 C-16.42894931 22.74916147 -16.41940141 20.5091405 -16.40367603 18.26775837 C-16.40465284 17.02205832 -16.40562965 15.77635827 -16.40663606 14.49290973 C-15.63921119 9.28465301 -13.1674646 6.22244463 -9.28369141 2.80102539 C-5.8649518 0.37192093 -4.14831362 -0.01021752 0 0 Z " fill="#F99437" transform="translate(108.90869140625,61.886474609375)"/>
<path d="M0 0 C33.99 0 67.98 0 103 0 C103 46.75784753 103 46.75784753 94 56 C87.8099527 60.78211497 82.01367225 63.25249228 74.13468933 63.24050903 C73.11760194 63.24307231 73.11760194 63.24307231 72.07996732 63.24568737 C69.81516583 63.24897326 67.55066272 63.23799364 65.28588867 63.22705078 C63.65955614 63.22648647 62.0332231 63.22680361 60.40689087 63.22793579 C55.9961259 63.22850953 51.58546975 63.21675169 47.17473006 63.20278788 C42.56362062 63.19028415 37.95250867 63.1891103 33.34138489 63.18673706 C24.61149141 63.18052124 15.88164803 63.16410903 7.15177661 63.14403808 C-2.78768371 63.12168226 -12.72714642 63.11068645 -22.66662562 63.10064721 C-43.11111171 63.07974291 -63.5555527 63.04456493 -84 63 C-84 59.04 -84 55.08 -84 51 C-81.72187912 50.99120064 -81.72187912 50.99120064 -79.3977356 50.98222351 C-65.06721281 50.92494752 -50.73685823 50.85233558 -36.40649605 50.76428509 C-29.03956665 50.71941055 -21.6726847 50.67997691 -14.30566406 50.65356445 C-7.88099843 50.63051651 -1.45648399 50.59704333 4.96806157 50.55129844 C8.36659712 50.52745726 11.76498379 50.50866915 15.16360092 50.50238609 C18.96720204 50.49272745 22.77026308 50.46464514 26.57373047 50.43237305 C27.68791855 50.43380814 28.80210663 50.43524323 29.95005798 50.4367218 C38.68566053 50.33227862 46.65247388 48.82191601 54.25 44.3125 C55.01828125 43.87550781 55.7865625 43.43851562 56.578125 42.98828125 C58.90757666 41.07587658 60.37721788 39.28956687 62.15136719 36.87573242 C62.95389923 35.78889412 62.95389923 35.78889412 63.77264404 34.68009949 C64.17767151 34.12566666 64.58269897 33.57123383 65 33 C64.19899872 32.99857498 63.39799744 32.99714996 62.57272339 32.99568176 C55.01016589 32.97782452 47.44828767 32.93613146 39.8860302 32.86790943 C35.9984865 32.83367252 32.11133438 32.80853471 28.22363281 32.80444336 C24.46906697 32.80015312 20.71538395 32.77163236 16.9610939 32.72656822 C15.53148676 32.71361603 14.10177384 32.70927752 12.67211533 32.71384621 C0.06613583 32.74473761 0.06613583 32.74473761 -3.88232422 29.64331055 C-6 27 -6 27 -6.6875 24 C-5.76693441 19.98298652 -4.16496484 18.59490385 -1 16 C2.07324219 15.38526917 2.07324219 15.38526917 5.546875 15.40063477 C6.85172852 15.39455704 8.15658203 15.38847931 9.50097656 15.38221741 C10.91732894 15.40112331 12.33367027 15.42087342 13.75 15.44140625 C15.21060768 15.44565998 16.67122214 15.44798533 18.13183594 15.44847107 C21.18846422 15.45462747 24.24435708 15.47728095 27.30078125 15.51293945 C31.21146652 15.55821143 35.12148653 15.57296611 39.03240967 15.57667637 C42.04710402 15.5811133 45.06165988 15.59643177 48.07629395 15.6155529 C49.5179328 15.62440907 50.95958628 15.63115164 52.40124512 15.63571358 C54.41861026 15.64479488 56.43589082 15.66888785 58.453125 15.69360352 C59.59942383 15.70424332 60.74572266 15.71488312 61.92675781 15.72584534 C65 16 65 16 70 18 C70 12.39 70 6.78 70 1 C46.9 1 23.8 1 0 1 C0 0.67 0 0.34 0 0 Z " fill="#DBF1F8" transform="translate(208,403)"/>
<path d="M0 0 C4.48634774 2.47010975 6.95199456 5.79439683 8.875 10.5 C9.83652516 16.48282323 7.86894989 20.47899325 4.875 25.5 C3.17246321 27.70204435 1.2817928 29.64240383 -0.70043945 31.59301758 C-1.24573303 32.14532043 -1.79102661 32.69762329 -2.35284424 33.2666626 C-4.13813837 35.06940286 -5.93747362 36.85729803 -7.73828125 38.64453125 C-8.99433335 39.9032817 -10.24979147 41.1626251 -11.50468445 42.42253113 C-14.12842968 45.05215299 -16.75922013 47.67445641 -19.39526367 50.29174805 C-22.76463935 53.63831226 -26.11570423 57.00254854 -29.46169758 60.37247181 C-32.04790682 62.97316834 -34.64360879 65.56422186 -37.242239 68.15250206 C-38.48146941 69.38907453 -39.71776412 70.62859659 -40.95098305 71.87116432 C-42.67825508 73.60865252 -44.41793639 75.33271095 -46.16137695 77.05395508 C-46.66291794 77.56359299 -47.16445892 78.0732309 -47.68119812 78.59831238 C-52.12616841 82.93957749 -56.39432755 85.10281128 -62.5625 86 C-70.77194054 84.84779782 -76.60721805 78.47522937 -82.23828125 72.8203125 C-82.97451218 72.08932343 -83.7107431 71.35833435 -84.46928406 70.60519409 C-86.01331422 69.06755036 -87.5535339 67.52607166 -89.09008789 65.98095703 C-91.4360143 63.62649111 -93.8000534 61.29134262 -96.16601562 58.95703125 C-97.67040196 57.45425649 -99.17369544 55.95038674 -100.67578125 54.4453125 C-101.73047356 53.40747116 -101.73047356 53.40747116 -102.80647278 52.34866333 C-107.75327389 47.33097675 -110.58864359 43.1874503 -111.625 36.0625 C-110.87155841 30.69422865 -108.64268844 26.63495195 -104.48046875 23.10546875 C-100.3276652 20.4525491 -96.94347574 19.8237227 -92.125 20.5 C-83.74289495 23.82779411 -78.7728081 29.69134662 -72.8359375 36.296875 C-72.08570313 37.0909375 -71.33546875 37.885 -70.5625 38.703125 C-69.90121094 39.43176758 -69.23992187 40.16041016 -68.55859375 40.91113281 C-65.81154476 42.70465156 -63.64013002 43.35604986 -60.34039307 43.17733765 C-55.36811376 41.65710541 -52.05537838 37.31639397 -48.5859375 33.63671875 C-47.70144928 32.73379593 -46.81696106 31.83087311 -45.90567017 30.90058899 C-43.56211399 28.50340041 -41.23658718 26.09131581 -38.91937256 23.66882324 C-35.65606881 20.26308761 -32.36719755 16.88228562 -29.07290649 13.50654602 C-27.32281879 11.71041809 -25.58166847 9.90552742 -23.85067749 8.09098816 C-16.79743501 0.80652333 -10.36744081 -4.3847259 0 0 Z " fill="#04E09A" transform="translate(307.125,140.5)"/>
<path d="M0 0 C6.96300406 5.7981406 9.52792245 12.79609374 10.6875 21.5625 C10.790625 22.696875 10.89375 23.83125 11 25 C14.11143567 26.03714522 16.49468096 26.20031861 19.76171875 26.31640625 C21.43911133 26.37924805 21.43911133 26.37924805 23.15039062 26.44335938 C24.31763672 26.48267578 25.48488281 26.52199219 26.6875 26.5625 C27.86634766 26.60568359 29.04519531 26.64886719 30.25976562 26.69335938 C33.17305883 26.79951176 36.08643757 26.90156242 39 27 C39.35132498 31.91854975 39.24610342 34.74287156 36.97558594 39.15820312 C36.42399811 40.23769226 36.42399811 40.23769226 35.86126709 41.33898926 C35.57704895 41.8871228 35.29283081 42.43525635 35 43 C34.12285985 43.00634791 34.12285985 43.00634791 33.22799969 43.01282406 C19.00667884 43.11607954 4.78540756 43.22470965 -9.4358263 43.33933926 C-16.31307591 43.39464308 -23.1903307 43.44812041 -30.06762695 43.49731445 C-36.70066303 43.54476639 -43.33364632 43.59728638 -49.96661949 43.65294075 C-52.5012246 43.67337069 -55.03584413 43.69208269 -57.57047462 43.70907402 C-61.11189634 43.73310377 -64.65321821 43.76316049 -68.19458008 43.79467773 C-69.24977844 43.8004332 -70.30497681 43.80618866 -71.39215088 43.81211853 C-72.35548843 43.82190735 -73.31882599 43.83169617 -74.31135559 43.84178162 C-75.14926541 43.84823417 -75.98717524 43.85468672 -76.85047626 43.8613348 C-79.18537704 43.92040376 -79.18537704 43.92040376 -82 45 C-82.1352403 46.60184626 -82.23210847 48.20696626 -82.3125 49.8125 C-82.37050781 50.70582031 -82.42851562 51.59914062 -82.48828125 52.51953125 C-82.24216219 55.1477471 -82.24216219 55.1477471 -80.03852844 56.62800598 C-75.91356735 58.49055953 -72.37252816 58.43991762 -67.89526367 58.43237305 C-66.98745148 58.4425647 -66.07963928 58.45275635 -65.14431763 58.46325684 C-62.15213852 58.49338289 -59.16027959 58.50265227 -56.16796875 58.51171875 C-54.09002112 58.5285657 -52.01208368 58.54671597 -49.93415833 58.56611633 C-44.47127466 58.61362052 -39.00843231 58.6434273 -33.54541016 58.66955566 C-27.96834147 58.69935896 -22.39141515 58.74589013 -16.81445312 58.79101562 C-5.87637654 58.87705359 5.06172933 58.9443968 16 59 C13.20067477 61.79932523 10.56734517 61.91621828 6.69808483 62.12304783 C5.90626466 62.12212604 5.11444448 62.12120424 4.29862976 62.12025452 C3.3830278 62.12162918 2.46742584 62.12300385 1.52407837 62.12442017 C0.53217499 62.12082489 -0.45972839 62.11722961 -1.48168945 62.11352539 C-3.06286308 62.11374443 -3.06286308 62.11374443 -4.67597961 62.1139679 C-8.1551012 62.11327205 -11.63416903 62.10549493 -15.11328125 62.09765625 C-17.52752147 62.09579091 -19.94176207 62.09436755 -22.35600281 62.09336853 C-28.70668586 62.08955251 -35.05734601 62.07973001 -41.40802002 62.06866455 C-47.88984874 62.05843078 -54.37168116 62.05386669 -60.85351562 62.04882812 C-73.5690221 62.03810694 -86.28450556 62.02051752 -99 62 C-99 50.45 -99 38.9 -99 27 C-95.7 26.34 -92.4 25.68 -89 25 C-88.01 23.02 -87.02 21.04 -86 19 C-79.4 19 -72.8 19 -66 19 C-65.01 20.98 -64.02 22.96 -63 25 C-61.42112144 26.57887856 -59.819407 26.12978098 -57.6328125 26.1328125 C-56.74722656 26.13410156 -55.86164063 26.13539062 -54.94921875 26.13671875 C-54.01722656 26.13285156 -53.08523437 26.12898438 -52.125 26.125 C-51.20074219 26.12886719 -50.27648437 26.13273437 -49.32421875 26.13671875 C-48.43605469 26.13542969 -47.54789063 26.13414063 -46.6328125 26.1328125 C-45.40908936 26.13112061 -45.40908936 26.13112061 -44.16064453 26.12939453 C-41.81613627 26.08257321 -41.81613627 26.08257321 -39 25 C-38.91363281 24.154375 -38.82726562 23.30875 -38.73828125 22.4375 C-37.46449387 12.15371201 -34.88981631 5.66022998 -26.67578125 -0.8125 C-18.60562329 -6.53121333 -8.14276577 -4.85013733 0 0 Z " fill="#B0C8EA" transform="translate(270,19)"/>
<path d="M0 0 C0.6573418 -0.00623996 1.3146836 -0.01247993 1.99194485 -0.01890898 C4.19316139 -0.03485565 6.39327307 -0.02222944 8.59449768 -0.00964355 C10.1731684 -0.01506403 11.75183405 -0.02218628 13.33049011 -0.03088379 C17.6177683 -0.04913059 21.90466177 -0.04204375 26.19194674 -0.02936745 C30.67795272 -0.01924498 35.1639256 -0.02863119 39.64993286 -0.03491211 C47.18473731 -0.04219147 54.719385 -0.03259406 62.25416565 -0.0135498 C70.96456044 0.00821164 79.67458063 0.0011741 88.38496631 -0.02085543 C95.86280283 -0.03901065 103.3405266 -0.04156692 110.81837803 -0.03110075 C115.28481851 -0.02486546 119.75108297 -0.02403096 124.21751213 -0.0372467 C128.41766886 -0.04880613 132.61734304 -0.04077807 136.81744766 -0.01766968 C138.35856004 -0.0123827 139.89971306 -0.01389624 141.44080925 -0.02272034 C143.54572217 -0.03366103 145.64909156 -0.01993311 147.75390625 0 C148.93137137 0.0015081 150.1088365 0.0030162 151.32198238 0.00457001 C155.11267099 0.61644149 156.78475214 1.76979698 159.44044495 4.50793457 C160.06544495 8.00793457 160.06544495 8.00793457 159.44044495 11.50793457 C156.78512482 14.24516142 155.11111066 15.39907877 151.32198238 16.01409245 C150.14451726 16.01689937 148.96705214 16.01970629 147.75390625 16.02259827 C147.09500446 16.02954379 146.43610267 16.03648932 145.75723416 16.04364532 C143.55680761 16.06189279 141.35746199 16.05165848 139.15699768 16.04138184 C137.57655532 16.0484414 135.99611973 16.05718657 134.41569519 16.06748962 C130.12855849 16.08998624 125.84179089 16.08704383 121.55461764 16.07816815 C117.9758456 16.07305838 114.39714293 16.08035051 110.81837803 16.08764023 C102.37764138 16.10463917 93.93708553 16.10107238 85.49635315 16.08435059 C76.78529236 16.06741663 68.07473222 16.08328114 59.36372608 16.11557347 C51.88503065 16.14224825 44.40649127 16.14955148 36.92775303 16.14105839 C32.46074977 16.1361245 27.99404798 16.13836994 23.52708244 16.1588459 C19.32848163 16.17717089 15.13060292 16.17128406 10.93204117 16.1466465 C9.39050344 16.14162899 7.84891097 16.14515281 6.30741692 16.15779495 C4.20410967 16.17368153 2.1031935 16.15882246 0 16.13612366 C-1.76563215 16.13524419 -1.76563215 16.13524419 -3.56693363 16.13434696 C-6.55955505 15.50793457 -6.55955505 15.50793457 -8.93827724 13.160079 C-10.92096544 9.91672649 -11.19579923 8.24586909 -10.55955505 4.50793457 C-7.42559017 0.3483664 -5.0860448 0.00651631 0 0 Z " fill="#000000" transform="translate(212.55955505371094,263.4920654296875)"/>
<path d="M0 0 C0.65325825 -0.00538554 1.3065165 -0.01077108 1.97957045 -0.01631981 C4.16679393 -0.03061833 6.3534138 -0.0234914 8.54066467 -0.01637268 C10.10948168 -0.0220753 11.67829453 -0.02903914 13.24710083 -0.03717041 C17.50745411 -0.05512929 21.76760174 -0.05392832 26.02798152 -0.04822803 C29.58423079 -0.04514004 33.14044033 -0.05122429 36.69668394 -0.05726677 C45.08611731 -0.07131942 53.47544886 -0.06974464 61.86488342 -0.05836487 C70.52073562 -0.04688319 79.176278 -0.06095839 87.83208936 -0.08776134 C95.26320674 -0.10991072 102.69422681 -0.11655744 110.12537485 -0.11068493 C114.56388266 -0.10731227 119.00219186 -0.10975079 123.44067192 -0.12693596 C127.61454478 -0.14239091 131.78795835 -0.13846596 135.96181297 -0.11963081 C137.49325726 -0.11594085 139.02473546 -0.11906533 140.55614853 -0.1295166 C142.6479076 -0.14270162 144.73814056 -0.13120398 146.82983398 -0.11352539 C147.99992476 -0.11331611 149.17001554 -0.11310682 150.37556362 -0.1128912 C154.15712832 0.49717552 155.8303115 1.654873 158.47840881 4.38768005 C159.04090881 7.88768005 159.04090881 7.88768005 158.47840881 11.38768005 C156.29671127 14.3280715 155.11267504 15.28105919 151.46737671 15.89383793 C150.28161545 15.89664485 149.09585419 15.89945177 147.87416077 15.90234375 C146.88096439 15.91276204 146.88096439 15.91276204 145.86770344 15.92339081 C143.65035573 15.9416786 141.43407583 15.93139264 139.21669006 15.92112732 C137.62654316 15.92818491 136.03640297 15.93692926 134.4462738 15.94723511 C130.12808811 15.96975577 125.81026845 15.96678341 121.49204636 15.95791364 C117.88847134 15.95280761 114.28496535 15.96009308 110.68139744 15.96738571 C102.18170718 15.98439285 93.68219642 15.98081027 85.18251038 15.96409607 C76.40955562 15.94716778 67.63709818 15.963017 58.86419773 15.99531895 C51.33456772 16.02199429 43.80509271 16.02929662 36.27542019 16.02080387 C31.77710368 16.01586935 27.27908655 16.01811862 22.7808075 16.03859138 C18.55185305 16.05691679 14.32361552 16.05102898 10.09469986 16.02639198 C8.54187505 16.02137428 6.98899591 16.02489876 5.43621445 16.03754044 C3.31753292 16.0534261 1.20122543 16.0385685 -0.91734314 16.01586914 C-2.1031044 16.01528283 -3.28886566 16.01469652 -4.51055908 16.01409245 C-7.52159119 15.38768005 -7.52159119 15.38768005 -9.93435669 13.07498074 C-11.52159119 10.38768005 -11.52159119 10.38768005 -11.52159119 6.76268005 C-9.66525727 0.49755307 -6.11884223 0.01271093 0 0 Z " fill="#020202" transform="translate(213.52159118652344,325.61231994628906)"/>
<path d="M0 0 C1.14879639 0.64932495 2.29759277 1.2986499 3.48120117 1.96765137 C10.47115197 5.04608864 17.8181074 4.55921635 25.30078125 4.51757812 C26.94266377 4.52300564 28.5845414 4.53013182 30.22640991 4.53881836 C34.66447883 4.55697992 39.10217382 4.55001399 43.54024887 4.53730202 C48.19652016 4.52713705 52.85276058 4.53657738 57.5090332 4.54284668 C65.3267183 4.55011293 73.14425198 4.54056227 80.96191406 4.52148438 C89.98531765 4.49971759 99.00835966 4.50676969 108.03175449 4.52879 C115.79510106 4.54697318 123.55833911 4.54948807 131.3217001 4.53903532 C135.95139424 4.53281641 140.58091873 4.53192048 145.21060181 4.54518127 C149.56431533 4.55678174 153.91756508 4.54863792 158.27122879 4.52560425 C159.86387997 4.52033948 161.45657055 4.5217925 163.04920578 4.53065491 C171.55836805 4.57362029 178.43869934 4.27381322 186 0 C185.8451417 6.33189226 184.92360706 9.96231595 180.5703125 14.6875 C177.18966037 17.51311969 173.57003753 17.13016017 169.37088013 17.14044189 C168.69397499 17.14341302 168.01706985 17.14638414 167.31965244 17.1494453 C165.04658526 17.15813179 162.77357075 17.15964049 160.50048828 17.16113281 C158.87271004 17.16576098 157.24493288 17.17078564 155.61715698 17.17617798 C151.19152063 17.18930311 146.76589945 17.19574702 142.34024668 17.20018864 C139.57611162 17.20311885 136.81198072 17.20722354 134.04784775 17.21169281 C125.40182264 17.22536732 116.75580702 17.23503451 108.10977185 17.2388947 C98.12466282 17.24337711 88.13969058 17.26093369 78.15462315 17.2898953 C70.43904658 17.31149862 62.72350853 17.32159824 55.00790203 17.32293582 C50.39837379 17.32398471 45.78897413 17.32991047 41.17947769 17.34775543 C36.84401592 17.36421308 32.50877972 17.3664029 28.17329788 17.35761642 C26.58218279 17.35684484 24.99105568 17.36120474 23.39997101 17.37107468 C21.22740685 17.38376127 19.05564559 17.37793603 16.88308716 17.36749268 C15.6674515 17.36895924 14.45181583 17.3704258 13.19934273 17.3719368 C8.60047035 16.8372989 6.05887798 15.00005143 2.75 11.875 C0.37729191 7.97697956 0.24790188 4.47293873 0 0 Z " fill="#DBF2F9" transform="translate(163,103)"/>
<path d="M0 0 C1.62771584 -0.01258347 1.62771584 -0.01258347 3.28831482 -0.02542114 C4.47389481 -0.01418213 5.65947479 -0.00294312 6.88098145 0.00863647 C8.13335098 0.00483978 9.38572052 0.00104309 10.67604065 -0.00286865 C14.10814018 -0.00900942 17.53927654 0.00273329 20.97126198 0.02303743 C24.5635175 0.04061564 28.15575711 0.0370832 31.74804688 0.03631592 C37.78056543 0.03818857 43.81288269 0.0555472 49.84533691 0.08285522 C56.81861739 0.11430571 63.79167743 0.12485139 70.76502371 0.12338412 C78.19029265 0.12203278 85.61547667 0.13591789 93.04071999 0.15427732 C95.17969206 0.15853858 97.31865041 0.1599595 99.45762634 0.16075516 C103.44387595 0.16313878 107.42994259 0.18256857 111.4161377 0.20394897 C113.19450768 0.20258942 113.19450768 0.20258942 115.00880432 0.20120239 C116.63652016 0.21399734 116.63652016 0.21399734 118.29711914 0.22705078 C119.23952705 0.23040247 120.18193497 0.23375416 121.1529007 0.23720741 C123.79718346 0.50979745 125.41941906 1.06480329 127.64855957 2.49447632 C129.20316262 5.60368241 129.3757665 9.1253066 128.64855957 12.49447632 C125.57615885 15.40270526 123.42977 15.87046054 119.25915527 15.87542725 C118.16559723 15.88388672 117.07203918 15.89234619 115.94534302 15.90106201 C114.75041229 15.89498932 113.55548157 15.88891663 112.32434082 15.88265991 C111.06221771 15.88791687 109.8000946 15.89317383 108.49972534 15.89859009 C105.04103828 15.91226147 101.58261981 15.90696594 98.12392807 15.89745283 C94.50363188 15.88985525 90.88335862 15.89690211 87.26306152 15.90161133 C81.18351108 15.9070686 75.10406998 15.89987806 69.02453613 15.8855896 C61.99668648 15.86926306 54.96909794 15.87455159 47.94125462 15.89106882 C41.90631914 15.90468453 35.87146225 15.90660295 29.83651638 15.89875281 C26.23253029 15.89407673 22.62866692 15.89344955 19.02468872 15.90336227 C15.00722805 15.9136405 10.99021722 15.89939323 6.97277832 15.88265991 C5.18038223 15.89176895 5.18038223 15.89176895 3.35177612 15.90106201 C2.25821808 15.89260254 1.16466003 15.88414307 0.03796387 15.87542725 C-0.91181839 15.87429617 -1.86160065 15.87316509 -2.84016418 15.87199974 C-5.85266597 15.41912643 -7.22101431 14.65994669 -9.35144043 12.49447632 C-10.03485752 7.11256677 -10.03485752 7.11256677 -9.35144043 4.49447632 C-6.41268245 0.86796302 -4.63668004 -0.00536055 0 0 Z " fill="#010202" transform="translate(196.3514404296875,61.505523681640625)"/>
<path d="M0 0 C5.87040895 3.24903137 8.83803259 7.69751083 12.125 13.375 C13.92165941 20.92096953 13.07279083 26.95242219 9.30859375 33.734375 C5.811698 38.81758186 1.62022788 42.08896231 -4.25 44 C-11.3341429 44.86170752 -17.6703696 44.94397814 -23.53515625 40.5546875 C-29.07358382 35.53351626 -32.74385868 31.14049773 -33.5 23.4609375 C-33.78115226 17.08229551 -33.11756461 12.18708665 -29.25 7 C-21.29889398 -1.65962042 -10.94700853 -4.87265342 0 0 Z " fill="#030404" transform="translate(173.25,328)"/>
<path d="M0 0 C5.82053259 3.25727738 8.79421054 7.72977276 12.0625 13.375 C13.8730803 20.97943724 12.97853578 26.98263812 9.171875 33.8046875 C5.57433193 39.12526436 0.81945937 42.09004544 -5.3125 44 C-12.42203489 44.87272734 -18.49168914 44.39630862 -24.3125 40 C-30.55169648 34.20469892 -33.29936541 29.17572269 -33.6875 20.625 C-33.52855368 14.10820074 -31.9315479 9.76667691 -27.44140625 5.0234375 C-19.36688523 -2.39474249 -10.32303838 -4.63133293 0 0 Z " fill="#030404" transform="translate(173.3125,266)"/>
<path d="M0 0 C6.32083729 3.34632563 9.7676745 8.30302351 12 15 C12.99191131 22.72273806 11.39640007 28.59318582 7 35 C2.50557168 40.0588449 -1.93213939 42.51587145 -8.69140625 43.3203125 C-16.55033618 43.78201209 -22.01354382 42.19703339 -28 37 C-33.21980643 30.72179964 -34.38035075 24.84559108 -34.2734375 16.81640625 C-33.69077042 10.81493529 -31.07176991 6.71628856 -26.6875 2.6875 C-18.01792334 -4.08214816 -9.64456385 -4.63179678 0 0 Z " fill="#030404" transform="translate(174,391)"/>
<path d="M0 0 C1.42282288 -0.01051392 1.42282288 -0.01051392 2.87438965 -0.02124023 C6.00510056 -0.03882352 9.13490514 -0.02719598 12.265625 -0.01367188 C14.44368666 -0.01636668 16.62174715 -0.02024901 18.79980469 -0.02526855 C23.36274682 -0.03116407 27.92537557 -0.02259867 32.48828125 -0.00390625 C38.33617091 0.01888302 44.18332625 0.00576027 50.03118896 -0.01819611 C54.5282138 -0.03265245 59.02506464 -0.02804878 63.52209473 -0.01768494 C65.67826423 -0.01501721 67.83444955 -0.01828899 69.99060059 -0.02760315 C73.00457587 -0.03776574 76.01736316 -0.02227105 79.03125 0 C79.92179077 -0.00809692 80.81233154 -0.01619385 81.7298584 -0.02453613 C85.82191505 0.03146191 87.99801029 0.20420769 91.56933594 2.36633301 C93.515625 4.51757812 93.515625 4.51757812 94.140625 7.45507812 C93.28410805 11.65201116 91.90829141 12.91354947 88.515625 15.51757812 C85.31792198 16.24809879 82.19267457 16.20125444 78.92358398 16.16455078 C77.96367554 16.17331238 77.00376709 16.18207397 76.01477051 16.19110107 C72.84662478 16.21308089 69.67987828 16.19854794 66.51171875 16.18164062 C64.30884025 16.18500887 62.10596357 16.18986156 59.90309143 16.19613647 C55.28881111 16.20350568 50.67501502 16.19279923 46.06079102 16.16943359 C40.1431629 16.14092962 34.22666774 16.15736059 28.30908108 16.18729591 C23.76145368 16.20535297 19.21409549 16.19961834 14.66646004 16.18665695 C12.48434376 16.18331943 10.30220311 16.18742212 8.12011528 16.19905472 C5.07217408 16.2117386 2.02607524 16.19242059 -1.02172852 16.16455078 C-1.9252153 16.17467194 -2.82870209 16.18479309 -3.75956726 16.19522095 C-9.85953902 16.0917602 -9.85953902 16.0917602 -13.04063416 13.16854858 C-14.81808454 9.90482679 -15.18484157 8.17557022 -14.484375 4.51757812 C-10.16221806 -0.26933564 -6.02986565 -0.0548244 0 0 Z " fill="#010101" transform="translate(216.484375,294.482421875)"/>
<path d="M0 0 C-6.37227869 7.22581978 -12.99213003 14.15490404 -19.80078125 20.96875 C-20.80973617 21.98092872 -21.81862046 22.99317787 -22.82743835 24.00549316 C-24.92072283 26.10470384 -27.01600022 28.20190115 -29.11254883 30.29785156 C-31.79517871 32.98037886 -34.47080296 35.66978232 -37.14481831 38.36089325 C-39.21661844 40.44380336 -41.29293891 42.52216135 -43.37056541 44.59925842 C-44.35973119 45.58960092 -45.34728358 46.58155771 -46.33315468 47.57518005 C-47.70603061 48.95785807 -49.08589957 50.33358199 -50.46606445 51.70898438 C-51.24722122 52.49156616 -52.02837799 53.27414795 -52.83320618 54.08044434 C-54.83317113 55.85220684 -56.55670385 56.95840496 -59 58 C-58.79503906 57.40832031 -58.59007812 56.81664062 -58.37890625 56.20703125 C-58.10949219 55.41683594 -57.84007812 54.62664062 -57.5625 53.8125 C-57.29566406 53.03519531 -57.02882813 52.25789063 -56.75390625 51.45703125 C-55.01734453 45.79745964 -54.79638862 40.42158975 -54.68359375 34.54296875 C-54.66281265 33.64000565 -54.64203156 32.73704254 -54.62062073 31.80671692 C-54.5554472 28.93371903 -54.49639045 26.06063286 -54.4375 23.1875 C-54.39428414 21.23501706 -54.35066888 19.28254292 -54.30664062 17.33007812 C-54.19979893 12.55347497 -54.09844143 7.77678336 -54 3 C-52.74453369 2.98541748 -51.48906738 2.97083496 -50.19555664 2.95581055 C-45.50435976 2.897511 -40.81362706 2.82028141 -36.12280273 2.73754883 C-34.09879126 2.70444772 -32.07469076 2.67637043 -30.05053711 2.65356445 C-27.12836027 2.61974463 -24.20698842 2.56741659 -21.28515625 2.51171875 C-20.39103531 2.50532883 -19.49691437 2.4989389 -18.57569885 2.49235535 C-13.19593581 2.36856282 -8.81474598 1.52949091 -3.80247498 -0.45939636 C-2 -1 -2 -1 0 0 Z " fill="#FBFBFB" transform="translate(380,400)"/>
<path d="M0 0 C1.1314887 3.6144778 0.7624668 5.643002 -0.8835144 9.11212158 C-5.89700414 17.58948942 -14.27456417 24.4880536 -21.1796875 31.453125 C-21.75779301 32.03655418 -22.33589851 32.61998337 -22.93152237 33.22109222 C-25.98615569 36.3022668 -29.0443283 39.37988297 -32.10498047 42.45507812 C-34.62182127 44.9852951 -37.13117533 47.5225981 -39.63427734 50.06640625 C-42.67862604 53.16022669 -45.73521172 56.2414453 -48.8008461 59.31417084 C-49.95882991 60.47883166 -51.11258459 61.64771458 -52.26180649 62.82102203 C-58.9948279 69.6871615 -64.99770782 75.53909012 -74.71484375 77.56640625 C-84.67197217 77.5489069 -91.7978375 72.76252887 -98.69725037 65.92053223 C-99.44555618 65.15269409 -100.193862 64.38485596 -100.96484375 63.59375 C-101.76483292 62.79142944 -102.56482208 61.98910889 -103.38905334 61.16247559 C-105.06453579 59.47731265 -106.7340244 57.78617076 -108.39770508 56.08935547 C-110.94237685 53.49502799 -113.50547444 50.92008335 -116.07226562 48.34765625 C-117.70422882 46.70161448 -119.33512631 45.05451529 -120.96484375 43.40625 C-121.72731918 42.63841187 -122.48979462 41.87057373 -123.27537537 41.07946777 C-129.33831175 34.8796749 -132.26456644 30.67811597 -133 22 C-128.15848432 26.02208477 -123.64677332 30.24934271 -119.25390625 34.75390625 C-117.99183005 36.03349277 -116.72945102 37.31278065 -115.46679688 38.59179688 C-113.5108448 40.57867504 -111.55733964 42.56778291 -109.60913086 44.56225586 C-107.70596314 46.50807293 -105.79320048 48.44404252 -103.87890625 50.37890625 C-103.02227135 51.26347252 -103.02227135 51.26347252 -102.14833069 52.16590881 C-95.24431089 59.11271349 -87.78877359 63.93694833 -77.8125 64.375 C-60.42769735 63.92742378 -50.27847344 50.43263468 -38.8671875 38.96484375 C-37.73826807 37.83405383 -36.60912364 36.70348849 -35.47976685 35.57313538 C-32.54150636 32.63109937 -29.60626414 29.68607073 -26.67169189 26.74035645 C-23.66319312 23.72153534 -20.65177818 20.70562616 -17.640625 17.68945312 C-11.75759757 11.79577623 -5.87776318 5.89892693 0 0 Z " fill="#DCF2F9" transform="translate(322,176)"/>
<path d="M0 0 C1.95728027 -0.01395813 1.95728027 -0.01395813 3.95410156 -0.02819824 C5.37045376 -0.01261095 6.78679527 0.00397414 8.203125 0.02148438 C9.66373598 0.02319664 11.12435003 0.02312862 12.58496094 0.0213623 C15.64157639 0.02301335 18.69745647 0.04166985 21.75390625 0.07324219 C25.66471548 0.11292001 29.57456234 0.11728629 33.48553467 0.10977936 C36.50025187 0.10670446 39.51475418 0.11884849 42.52941895 0.13591003 C43.97105562 0.14292311 45.41271664 0.14606662 46.85437012 0.1452179 C48.87173171 0.14702278 50.88903757 0.17071387 52.90625 0.1953125 C54.62569824 0.20794128 54.62569824 0.20794128 56.37988281 0.2208252 C59.82891334 0.66346174 61.72143797 1.48191541 64.453125 3.61523438 C65.515625 6.99023438 65.515625 6.99023438 65.453125 10.61523438 C63.86950684 13.30235291 63.86950684 13.30235291 61.453125 15.61523438 C58.3795166 16.24342346 58.3795166 16.24342346 54.72851562 16.24633789 C54.06136032 16.25349319 53.39420502 16.2606485 52.70683289 16.26802063 C50.50697833 16.28489555 48.30916549 16.26551622 46.109375 16.24414062 C44.5776757 16.24496946 43.04597648 16.24742937 41.51428223 16.25144958 C38.30628645 16.25430671 35.0989892 16.23961602 31.89111328 16.2121582 C27.78162928 16.17807444 23.67339419 16.1840938 19.5638504 16.20282078 C16.4016074 16.21339583 13.2396544 16.20444859 10.07743835 16.18943596 C8.56240195 16.18425732 7.04733522 16.18473212 5.53230286 16.19098091 C3.4134524 16.1964397 1.29638189 16.17604162 -0.82226562 16.14868164 C-2.02709595 16.14248306 -3.23192627 16.13628448 -4.4732666 16.12989807 C-8.14776384 15.51461789 -9.33349742 14.56242384 -11.546875 11.61523438 C-12.109375 8.67773438 -12.109375 8.67773438 -11.546875 5.61523438 C-7.9452041 1.12079744 -5.71926571 -0.0102503 0 0 Z " fill="#050606" transform="translate(213.546875,418.384765625)"/>
<path d="M0 0 C0.78153946 -0.00761353 1.56307892 -0.01522705 2.36830139 -0.02307129 C4.01820691 -0.03385721 5.66818061 -0.0367315 7.31811523 -0.03222656 C9.83628721 -0.03125439 12.35140862 -0.0728829 14.86914062 -0.1171875 C16.47525409 -0.1223951 18.0813781 -0.12508268 19.6875 -0.125 C20.81115211 -0.1495929 20.81115211 -0.1495929 21.95750427 -0.17468262 C25.91813224 -0.12258727 27.74624013 0.34308762 30.92407227 2.77929688 C32.91015625 5.46875 32.91015625 5.46875 32.91015625 9.09375 C31.54454819 13.70267719 31.54454819 13.70267719 28.91015625 15.46875 C26.01627063 15.7914812 23.34188357 15.93677361 20.4453125 15.9375 C19.61559433 15.94511353 18.78587616 15.95272705 17.93101501 15.96057129 C16.17677824 15.971373 14.42247715 15.97422509 12.66821289 15.96972656 C9.98539841 15.96875462 7.30544792 16.0103625 4.62304688 16.0546875 C2.91797471 16.0598949 1.21289261 16.06258269 -0.4921875 16.0625 C-1.29333481 16.07889526 -2.09448212 16.09529053 -2.91990662 16.11218262 C-6.83524629 16.06365609 -8.6865936 15.83595479 -11.62719727 13.15820312 C-13.08984375 10.46875 -13.08984375 10.46875 -13.08984375 6.84375 C-12.08984375 3.46875 -12.08984375 3.46875 -10.53295898 1.78710938 C-7.09029117 -0.07063082 -3.81894532 0.00102406 0 0 Z " fill="#040405" transform="translate(215.08984375,356.53125)"/>
<path d="M0 0 C1.86335578 5.59006733 -1.60587684 11.80296918 -4 17 C-14.92786455 37.6230617 -31.28743505 50.08792569 -53.1953125 57.65234375 C-55 58 -55 58 -58 57 C-57.47013489 56.68248276 -56.94026978 56.36496552 -56.39434814 56.03782654 C-49.65848865 51.7994636 -44.25432825 46.67471541 -38.671875 41.03515625 C-37.71073733 40.07349832 -36.74907721 39.11236229 -35.78692627 38.15171814 C-33.78547755 36.15018038 -31.78923268 34.143643 -29.796875 32.13305664 C-27.25816184 29.5716127 -24.70847369 27.02143994 -22.15501022 24.47470951 C-20.17277518 22.49583364 -18.1955953 20.51196871 -16.21994781 18.52651787 C-14.83033265 17.13125 -13.4372715 15.73941684 -12.04412842 14.34767151 C-7.54773244 9.80094036 -3.51754893 5.34592828 0 0 Z " fill="#FD9636" transform="translate(384,425)"/>
<path d="M0 0 C9.9 0 19.8 0 30 0 C30 4.95 30 9.9 30 15 C20.1 15 10.2 15 0 15 C0 10.05 0 5.1 0 0 Z " fill="#FE9637" transform="translate(357,62)"/>
<path d="M0 0 C3.71317907 1.14770989 5.2692056 1.85342428 7.4375 5.0625 C8 8 8 8 7.4375 11.0625 C4.80538535 14.73150829 3.34895674 15.90259531 -1.125 16.6875 C-4.5625 16.0625 -4.5625 16.0625 -7 13.9375 C-8.85305839 10.52787255 -9.27838388 8.88054737 -8.5625 5.0625 C-5.88937913 1.25532785 -4.71546409 0.08272744 0 0 Z " fill="#04DA95" transform="translate(163.5625,340.9375)"/>
<path d="M0 0 C3.71317907 1.14770989 5.2692056 1.85342428 7.4375 5.0625 C8 8 8 8 7.4375 11.0625 C4.98155875 14.38524404 3.5118356 15.83868008 -0.5625 16.6875 C-4.6368356 15.83868008 -6.10655875 14.38524404 -8.5625 11.0625 C-9.1875 8.0625 -9.1875 8.0625 -8.5625 5.0625 C-5.88937913 1.25532785 -4.71546409 0.08272744 0 0 Z " fill="#04DA96" transform="translate(163.5625,278.9375)"/>
<path d="M0 0 C4.10238116 1.34259747 5.44380003 2.30374172 7.4375 6.125 C7.4375 9.90410616 7.27039714 12.13193033 4.8125 15.0625 C1.42581357 16.57759656 -0.89667263 16.64868962 -4.5625 16.125 C-7.4861459 13.5761805 -8.41159176 11.92984394 -9.125 8.125 C-8.10902344 2.70645837 -5.51912397 0.19365347 0 0 Z " fill="#04DB96" transform="translate(163.5625,402.875)"/>
<path d="M0 0 C2.375 1.5625 2.375 1.5625 4 4 C4.56783945 7.97487617 4.62340519 10.06489221 2.375 13.4375 C-0.71685231 15.47161336 -2.36367425 15.60605429 -6 15 C-8.375 13.4375 -8.375 13.4375 -10 11 C-10.56783945 7.02512383 -10.62340519 4.93510779 -8.375 1.5625 C-5.28314769 -0.47161336 -3.63632575 -0.60605429 0 0 Z " fill="#050607" transform="translate(259,31)"/>
</svg>
